<?xml version="1.0" encoding="UTF-8"?>
<svg id="Layer_1" data-name="Layer 1" xmlns="http://www.w3.org/2000/svg" viewBox="0 0 514 440">
  <g>
    <path d="M219.72,218.9c-2.38-.89-4.29-2.78-5.18-5.16-1.1-2.96-1.66-6.68,2.05-7.36,6.37-1.2,21.89,13.02,19.2,14.51-2.43,1.35-6.41,1.64-16.09-1.97" style="fill: #231f20;"/>
    <path d="M295.28,218.9c2.38-.89,4.29-2.78,5.18-5.16,1.1-2.96,1.66-6.68-2.05-7.36-6.37-1.2-21.89,13.02-19.2,14.51,2.43,1.35,6.41,1.64,16.09-1.97" style="fill: #231f20;"/>
  </g>
  <path d="M184.81,162.86v-.04c-13.41-6.68-44.91-21-63.05-8.17-23.22,16.42-8.07,31.37-8.07,31.37,0,0,6.14-37.84,57.47-11.78-11.82-1.53-24.01-.89-32.63,5.14-22.66,15.86-7.19,28.2-7.19,28.2,0,0,4.42-29.05,46.22-17.29-4.52,1.8-8.58,4.17-11.8,7.26-18.7,17.96-2.63,24.4-2.63,24.4,0,0,2.57-19.86,25.73-21.77,0,0-9.48-25.17-4.06-37.34l.02.02Z" style="fill: #231f20;"/>
  <path d="M210.97,195.23s-.02-.12-.04-.19h-.1c-.17.08-.02.15.15.19Z" style="fill: #231f20;"/>
  <path d="M209.09,195.62s0,.1-.02.12c.1-.04.17-.12.25-.1,0-.02-.1-.04-.23-.04v.02Z" style="fill: #231f20;"/>
  <path d="M211.26,195.18s.12-.02.08-.06h-.17.04s.04.06.04.08v-.02Z" style="fill: #231f20;"/>
  <path d="M210.95,195.06s-.02,0-.04-.02h0l.02.02h.02Z" style="fill: #231f20;"/>
  <path d="M393.24,154.86c-18.14-12.81-49.64,1.49-63.05,8.17v.04c5.41,12.17-4.06,37.34-4.06,37.34,23.18,1.91,25.73,21.77,25.73,21.77,0,0,16.07-6.45-2.63-24.4-3.21-3.09-7.28-5.45-11.8-7.26,41.82-11.76,46.22,17.29,46.22,17.29,0,0,15.47-12.36-7.19-28.2-8.63-6.03-20.84-6.66-32.64-5.14,51.34-26.08,57.47,11.78,57.47,11.78,0,0,15.16-14.95-8.07-31.37l.02-.02Z" style="fill: #231f20;"/>
  <path d="M320.18,158.92c5.06-4.02,10.12-11.03,10.12-23.04,0-23.99-9.77-31.23-15.82-36.2-6.05-4.98-1.99-25.32-19.12-36.04-12.23-7.67-31.6-2.65-31.6-2.65,14.89.91,15.09,23.49,15.09,23.49-12.56,2.72-15.86-.58-15.86-.58,0,16.03,5.66,25.75,14.64,26.35,14.29.93,22.16,2.88,25.92,9.35,6.05,10.41.7,14.47.7,14.47-.68.23-1.43.27-2.26.15-8.31-7.01-19.3-12.48-33.71-14.31-.5,5.37-5.14,9.56-10.78,9.56v-.19c-5.64,0-10.28-4.21-10.78-9.56-14.43,1.82-25.42,7.3-33.71,14.31-.81.12-1.58.1-2.26-.15,0,0-5.33-4.06.7-14.47,3.75-6.47,11.63-8.42,25.92-9.35,8.98-.58,14.64-10.33,14.64-26.35,0,0-3.3,3.3-15.86.58,0,0,.21-22.58,15.09-23.49,0,0-19.37-5.04-31.6,2.65-17.11,10.74-13.06,31.06-19.12,36.04-6.05,4.98-15.82,12.21-15.82,36.2,0,11.98,5.06,19.01,10.12,23.04-4.37,9.87.52,37.47,8.02,44.06.87.77,2.22-.06,1.89-1.14-2.26-7.55,4.44-11.32,10.2-10.47.21-.15.33-.29.06-.41h.04c.23.02.5-.04.44-.1-.17,0-.25,0-.44.04-.37-.31-.39-.37-.46-.62.33.1.29-.1.77-.1-.31-.06-.48.04-.73-.1-.04-.21.37-.39.54-.56-.41-.06-.29-.17-.79-.17,0-.23-.21-.35-.19-.62h.17c-.6-.08.33-.25-.02-.31.21,0,.31.04.48.02l-.19-.12c.19.06.77.1.83,0-.41-.1-.29.02-.64-.02l.56-.04s-.68-.1-.87,0c.02-.27-.23-.56-.1-.81h.35c-.12-.1-.1-.29.21-.37-.1,0-.29-.04-.41,0-.44-.15.44-.04.17-.17.08.04.17.06.31.08l-.39-.33c.27,0,.85-.21.64-.35-.15,0-.33.04-.37.06l.04.04s-.06-.02-.04-.04l-.12-.08.6-.06-.52-.12h-.1v-.02h.1l.5.02c-.08-.1-.73-.15-.66-.21.33-.29.5-.23.95-.44-.91-.02.06-.33-.58-.37.68-.27.31-.68.54-1.04h.06c.39-.12-.62-.15-.44-.31l.12.04c.46-.21.08-.6-.21-.79.1.04.35,0,.35-.04-.15-.06-.54.06-.39-.06.06.02.25,0,.25,0l-.37-.1c.31-.29.6-.64.44-.95.12-.06.25,0,.37,0-.04-.25-.29-.48-.31-.7h.37c0-.12-.56-.08-.21-.23.06-.04,0,.08.17.12.29-.21-.33-.12-.27-.33l.39.06c.25-.17-.19-.19-.41-.25-.41-.23.75-.17.46-.46-.17-.04-.27,0-.44-.04.12-.21-.1-.25.02-.46.52-.12,0,.1.48,0l-.15.17c.29-.15.04.12.35.1.1-.1-.15-.27-.23-.39.21,0,0,.17.31.1l-.08-.06s.15.02.15.06c.21-.02,0-.08,0-.15-.1,0-.27,0-.44.02h.08c-.29-.15-.02-.37-.23-.5h.12c.02-.08-.21-.17-.25-.29.15-.06.39.04.35-.15-.15-.04-.41.04-.37-.1,0,0,.08.12.21.06-.06-.15.06-.04.25-.19-.19-.08.08-.15-.21-.17.21-.04.15-.04.29-.12-.17.04-.12-.17-.31-.17.21-.04.23.17.46.04-.12-.08-.15-.23-.35-.25.06-.06.15-.08.19-.19,0,0,0,.04.04.04-.08-.17.08-.44-.08-.54.21.04.12-.37.29-.25,0-.08-.04-.19-.08-.21.12,0,.08-.19.17-.27-.06-.04,0-.17,0-.25,0,.04,0,.06.04.04,0-.08,0-.06.06-.15,0-.12-.06.02-.08-.04.04-.1.04,0,.08-.04,0-.06,0-.1-.02-.17,0-.04.02-.06.04-.06v-.04h0s0-.08.04-.12l-.04.12h0l.04-.04c0-.06,0-.1.02-.17.02-.08.04-.12.04-.15h0v.08-.1s.04.17.06.25c.06.27-.04.06-.02.25,0,.08.04.17.06.25h-.02s0,.06.02.08c-.04,0,0,.21,0,.29l.04-.04c.08.15.08.25.04.35-.04.1-.1.19-.04.31.04.04.1.1.17.15l-.12.04s.19.1.17.25c-.1.25-.06.52,0,.79s.15.54.04.81c.04,0,.06-.02.08-.06-.27.23-.12.41.08.58.19.17.44.33.21.54h-.1c.08.19-.1-.06-.25.1.35.02.29.27.44.39-.08,0-.08-.06-.12-.1-.08.02-.29.04-.23.08.54.12.52.41.73.64-.25.02-.46.21-.89.31.1.02.31.06.52.1,0,0,.04,0,.06-.02h.02s-.04-.06-.06-.06c.25-.08.21,0,.52,0,0,.06.12.21-.1.23,0,.04-.02.06-.08.1.06.02.08.06.06.08h-.15c-.12.15.39.33.66.44-.46-.1-.48.02-.81.02.02,0,.04-.12.02-.29-.04,0-.08.02-.19.02-.31.15.31.25.1.48-.04,0-.1-.04-.23-.04-.08.08.19.15.37.17-.31,0-.54.19-.39.27.27.06.39.06.37.19l-.23-.06c-.17.15.29.12.19.23,0-.04-.19-.02-.23,0,.15.17.27.17.77.27h-.37c.23.12.75.37.21.37.81-.04.48.29.46.41-.02-.04-.21-.04-.29-.06.58.25.06.5.1.77l-.64.04c.02.12,1.31.17,1.31.31l-.31-.06c.12.25.08.35,0,.56h-.46c.21.06.23.17.44.23-1.1.17.64.66-.58.97h.87c0,.15.19.29-.48.35h0c-.68-.04,0,.08-.15.17.08.06.52.1.66.06-.44.31.08.79-.75.97.31.31,1.08.56,1,.89h-.1c-.12.1-.37.33-1.16.33.19.25,1.31.39.95.7l-.31-.06c-.17.08.23.19.33.23,0,.02-.17,0-.29,0-.27.06.17.1.25.17h-.27c-.56.21.56.58.44.87-.08-.06-.39-.02-.52,0,.91.12.7.46.93.58l-.35-.08c.6.25-.95.21-.35.46l.52-.15c-.15.1.02.19.44.17-.31.12-.7,0-.79.19-.12,0-.17-.02-.23-.06,1.41.95,2.53,2.32,3.07,4.15,1.64,5.45,8.58,12.32,12.88,17.5,3.5,4.25,8.6,6.95,14.18,7.48.06,0,.12-.04.15-.08,3.09-7.24,8-7.17,8.4-7.15h0v.19h0c.37,0,5.31-.06,8.4,7.15.02.06.08.1.15.08,5.58-.52,10.68-3.23,14.18-7.48,4.29-5.18,11.24-12.03,12.88-17.5.54-1.82,1.66-3.21,3.07-4.15-.06.02-.1.06-.23.06-.08-.17-.48-.08-.79-.19.41.02.58-.06.44-.17l.52.15c.62-.25-.95-.21-.35-.46l-.35.08c.21-.12,0-.46.93-.58-.12-.02-.44-.04-.52,0-.12-.29,1-.66.44-.91h-.27s.52-.08.25-.15c-.1,0-.27.02-.29,0,.1-.02.48-.15.33-.23l-.31.06c-.35-.29.77-.46.95-.7-.79,0-1.04-.23-1.16-.35h-.1c-.08-.33.68-.58,1-.89-.83-.19-.31-.66-.75-.97.12.04.58,0,.66-.06-.15-.08.52-.21-.15-.19h0c-.66-.02-.48-.19-.48-.29h.87c-1.24-.33.5-.83-.58-1,.21-.08.23-.17.44-.25h-.46c-.08-.21-.15-.31,0-.56l-.31.06c0-.15,1.26-.19,1.31-.31l-.64-.04c.02-.25-.48-.52.1-.77-.08,0-.27,0-.29.06,0-.12-.35-.46.46-.41-.52,0-.02-.27.21-.39h-.37c.5-.1.62-.1.77-.25-.04-.04-.23-.04-.23,0-.1-.1.37-.08.19-.23l-.23.06c0-.12.1-.12.37-.19.15-.08-.08-.25-.39-.27.21,0,.46-.08.37-.17-.12,0-.19,0-.23.04-.21-.23.41-.33.1-.48-.1,0-.17,0-.19-.02,0,.17,0,.31.02.29-.31,0-.35-.15-.81-.02.27-.1.79-.31.66-.44h-.15s0-.04.06-.06c-.04-.04-.08-.06-.08-.1-.25,0-.1-.17-.1-.23.31,0,.27-.08.52,0-.02,0-.04,0-.06.06h.02s.04,0,.06.02c.21-.04.41-.08.52-.1-.44-.1-.64-.29-.89-.31.19-.21.19-.5.73-.64.06-.06-.15-.06-.23-.08-.06.04-.06.08-.12.1.15-.12.1-.35.44-.39-.15-.15-.33.08-.25-.12h-.1c-.25-.19,0-.35.21-.52s.35-.35.08-.58t.08.06c-.1-.27,0-.54.04-.81.06-.27.08-.54,0-.79-.02-.15.08-.17.17-.25l-.12-.04s.1-.1.17-.15c.06-.1,0-.21-.04-.31s-.04-.21.04-.35l.04.04s.06-.31,0-.29c0,0,.04-.04.02-.06h-.02s.04-.17.06-.25c0-.19-.08.02-.02-.25.02-.08.06-.21.06-.25v.1-.08h0s0-.02,0,0c0,0,0,.06.04.15,0,.06,0,.1.02.17l.04.04h0l-.04-.12c.02.06.04.1.04.12h0v.04s.02.04.04.06c0,.06,0,.1-.02.17.04,0,.04-.06.08.04,0,.08-.08-.06-.08.04.04.08.08.06.06.15.02,0,.04,0,.04-.04,0,.08.04.21,0,.25.08.08.04.27.17.27-.02.02-.08.15-.08.21.17-.12.06.27.29.25-.17.1,0,.35-.08.54,0,0,.04-.02.04-.04.04.1.12.12.19.19-.21,0-.23.17-.35.25.25.12.25-.08.46-.04-.19,0-.15.21-.31.17.17.08.08.08.29.12-.31,0-.04.08-.21.17.19.12.31.04.25.19.12.06.21-.06.21-.06.04.15-.23.06-.37.1-.04.19.21.08.35.15-.04.1-.27.21-.25.29.04,0,.06.02.12,0-.21.12.06.35-.23.5h.08c-.17-.02-.31-.02-.44-.02,0,.06-.19.12,0,.15,0-.04.08-.04.15-.06l-.08.06c.31.06.1-.1.31-.1-.08.15-.31.29-.23.39.31.02.08-.25.35-.1l-.15-.17c.48.12-.04-.1.48,0,.12.21-.1.25.02.46-.17.04-.27,0-.44.04-.29.31.87.25.46.46-.21.06-.66.08-.41.25l.39-.06c.08.21-.56.12-.27.33.17-.04.12-.17.17-.12.35.15-.23.1-.21.21h.37c0,.25-.27.48-.31.73.12,0,.23-.06.37,0-.17.31.12.66.44.95l-.37.1s.19.04.25,0c.17.12-.25,0-.39.06,0,.06.23.08.35.04-.29.21-.66.58-.21.79l.12-.04c.19.17-.83.19-.44.35h.06c.23.33-.17.75.54,1.02-.64.06.33.35-.58.37.48.21.62.15.95.44.04.08-.58.12-.66.21h.5l.1-.02h0l-.1.02-.52.12.6.06-.12.08s0,.02-.04.04l.04-.04s-.23-.08-.37-.06c-.21.15.37.35.64.35l-.39.33c.15,0,.23-.04.31-.08-.27.12.6,0,.17.17-.12-.02-.31,0-.41,0,.31.08.33.27.21.41h.35c.1.23-.12.5-.1.77-.19-.1-.81-.08-.87,0l.56.04c-.35.06-.21-.08-.64.02.06.1.64.06.83,0l-.19.12c.17,0,.25-.02.48-.02-.35.06.58.23-.02.29h.17c.02.29-.17.41-.19.64-.5,0-.39.08-.79.17.17.17.58.35.54.56-.25.15-.44.04-.73.1.46,0,.44.21.77.1-.06.25-.08.31-.46.62-.19-.04-.27-.06-.44-.04-.08.06.21.12.44.12h.04c-.25.1-.15.25.06.39,5.76-.87,12.46,2.9,10.2,10.47-.33,1.08,1.02,1.91,1.89,1.14,7.51-6.59,12.4-34.19,8.02-44.06l.12-.02ZM216.01,179.07s-.15.02-.23.04c0-.17.04-.02.23-.04ZM218.83,186.68v-.06l.19.1-.19-.06v.02ZM296.13,186.83v.06l-.15.06.15-.1v-.02ZM298.99,179.28c.17,0,.21-.12.23.04-.06-.02-.15-.04-.23-.04ZM307.39,144.39s0,.08.02.1l.06.08s.08-.04.12.17l-.12-.17s-.04,0-.06-.08l-.06-.08.04-.04v.02ZM306.08,144.49l.04.19s.04.12.06.25l-.06-.25c-.12-.35-.17.64-.33.23.08-.06.12-.56.29-.44v.02ZM295.26,147.04l.23.54-.23-.12v-.41ZM276.39,134.04c.06.21.15.68.06.6l-.21-.79.12.19h.02ZM276.24,134.58c.06.21.04-.19.19.29.06.64-.02.68-.23.19,0,.19.08.39.1.54-.15-.37-.35-1.04-.48-1.78.23.75.17.44.44,1.33.08.08.04-.27-.02-.58v.02ZM275.64,133.63s0,.08.02.1l.04.08s.04-.04.1.17l-.1-.17s-.02,0-.04-.08l-.04-.08v-.04l.02.02ZM274.87,133.71l.04.19s.04.12.06.25l-.06-.25c-.12-.35-.02.62-.17.23.04-.06,0-.56.12-.41ZM240.06,133.71l.04-.19c.1-.15.08.35.12.41-.15.39-.04-.58-.17-.23l-.06.25c.02-.12.04-.19.06-.25ZM239.73,133.83s.06-.17.1-.21c0,.04,0,.08-.02.12,0,0,.02-.02.04-.02,0-.02.04-.02.04,0h-.04s-.04.12-.1.29c0-.06.02-.17.06-.25,0,0-.04.04-.06.08-.1.25-.21.66-.29.93.02.37.19-.44.27-.48-.02.27-.04.46-.1.64.17-.25.25-.29.29.08,0,0-.23.46-.25.85.29-.35.5-1.14.83-1.53.52-1.04.31.79.68.02.08-.29,0-.54.17-.7-.17.58-.02.39-.08.62.33-.83.12.23.37-.33-.08.21-.06.44-.06.64.02-.08.04-.17.08-.29l-.08.29h0c-.21.7.06.31-.39,1.31.46-1.06.23.33.81-1.29v-.21l.1.37h0s-.02-.12-.04-.27l.04.27c.04.15.1-.04,0,.73-.1.17-.17.15-.25.31-.08.66.35-.5.46-.5-.15.52-.17.17-.31.81.04.1.23-.27.33-.39l-.08.29c0,.7.48-1.41.33-.39.04-.17.12-.35.17-.52-.04.31-.08.87-.29,1.2.06,0,.21-.21.33-.52.06-.44,0-.23.15-.79l.35-.21s-.1.27-.15.27c-.17,1.62,1.02-1.1.79.83.1-.48.17-.41.29-.73.06.19.27.1.27.44l-.15.31c.39-.31.75-.75.85-.5.06-.15-.17.46-.23.54.33-.54-.17,1.35.31.12v-.1c.17.29.77-.52,1.1-.58-.21.75-.19.02-.46.91.08.33.48-.21.58.1-.06.08-.08.17-.12.21,0,.54.25-.75.37-.56-.15.35-.17.46-.19.66l.27-.56s-.21.54-.29.73c.37-.75.37-.12.73-.83-.06.19-.37.85-.46,1.14,0,.25.17,0,.33-.27h0c.15-.37.17-.33.21-.27.06-.08.12-.08.1.06-.08.08-.08,0-.1-.06-.06.06-.12.17-.21.27h0c-.15.52.04.52-.04.58.06.29.19-.39.48-.79v-.37l.29-.08-.23.31c0,.31.35-.27.46-.21l.12-.44.25-.21c-.35.85.08.27-.39,1.22.06.52.68-.52.95-.5-.04,0-.1.17-.17.29.04.25.31-.17.6-.58-.12.25-.21.33-.31.56.15.06.31-.44.6-.62-.21.33-.27.52-.27.62.12-.31.27-.52.35-.58-.89,1.62-.12.77-.81,2.05.17-.35.77-.97,1-1.68l-.1.1c.21-.46.19-.25.25-.27.08-.08.15-.12.04,0h-.04c-.06.06-.15.17-.19.25.5-.46.52.19.97-.1-.1.17-.35.41-.35.58.15.37.73-.41,1.2-.7-.52,1.06-.37,0-.87,1,.39-.1.87-.33,1.47-.7-.68,1.58.64-.48.21.81.25-.52.46-.66.56-.62h0c.06.02.08.08.1.17l-.1-.17h0c-.25.39-.15.46-.35.75.35-.41.73-.48.17.5.54-.93.17.15.62-.5,0-.1.06-.23.15-.46l-.04.31s-.06.1-.1.15c-.08.41.35-.06.33.31.29-.62.31-.21.5-.41-.04.04-.12.1-.17.19-.25.54.41-.35.33,0-.08.23-.33.54-.29.62.25-.41.75-.79.54-.23-.04-.02-.17.19-.29.33.81-.5.68.6,1.6,0l-.5.66c-.31,1.04.87-1.06,1.02-.83.31.6.21,1.8.85,1.85h0v.19h0c.64-.04.54-1.24.85-1.85.12-.21,1.33,1.87,1.02.83l-.5-.66c.91.62.79-.48,1.6,0-.12-.15-.25-.35-.29-.33-.23-.56.29-.19.54.23.04-.08-.21-.39-.29-.62-.1-.35.58.54.33,0-.04-.08-.12-.15-.17-.19.19.23.21-.21.5.41,0-.37.41.1.33-.31-.04-.04-.06-.08-.1-.15l-.04-.31c.08.23.15.37.15.46.44.62.08-.46.62.5-.56-.97-.17-.91.17-.5-.19-.29-.08-.35-.35-.75h0l-.1.17s.04-.15.1-.17h0c.12-.04.31.1.56.62-.44-1.29.89.77.21-.81.6.37,1.08.6,1.47.7-.5-1-.35.04-.87-1,.48.27,1.06,1.06,1.2.7,0-.17-.25-.41-.35-.58.48.29.48-.35.97.1-.04-.1-.12-.19-.19-.25h-.04c-.1-.1-.04-.06.04,0,.06,0,.04-.19.25.27l-.1-.1c.23.7.83,1.33,1,1.68-.68-1.29.08-.44-.81-2.05.06.08.21.27.35.58,0-.1-.06-.29-.27-.62.29.19.46.7.6.62-.1-.23-.17-.29-.31-.56.27.41.54.81.6.58-.06-.12-.12-.31-.17-.29.27-.02.89,1.02.95.5-.5-.95-.06-.35-.39-1.22l.25.21.12.44c.1-.06.48.52.46.21l-.23-.31.29.08v.37c.31.39.44,1.08.5.79-.06-.08.1-.06-.04-.58h0c-.06-.1-.15-.21-.21-.27,0,.06-.02.15-.1.06,0-.15.04-.12.1-.06.02-.06.04-.08.21.27h0c.17.25.33.52.33.27-.08-.29-.39-.93-.46-1.14.33.7.35.08.73.83-.08-.17-.27-.62-.29-.73l.27.56c0-.21-.04-.31-.19-.66.12-.17.37,1.12.37.56-.04-.04-.06-.12-.12-.21.1-.33.52.23.58-.1-.27-.89-.23-.17-.46-.91.33.08.93.87,1.1.58v.1c.46,1.22-.04-.66.29-.12-.06-.08-.27-.68-.23-.54.1-.25.46.19.85.5l-.15-.31c0-.31.21-.25.27-.44.15.31.19.23.29.73-.23-1.93.95.79.79-.83-.04,0-.17-.25-.15-.27l.35.21c.15.56.06.33.15.79.12.31.27.54.33.52-.23-.33-.25-.87-.29-1.2.04.17.1.35.17.52-.15-1.02.33,1.1.33.39l-.08-.29c.1.12.29.5.33.39-.15-.64-.17-.27-.31-.81.12,0,.54,1.16.46.5-.08-.17-.17-.15-.25-.31-.1-.77-.04-.58,0-.73l.04-.27c0,.15,0,.21-.04.27h0l.08-.35v.21c.58,1.64.35.25.83,1.29-.44-1-.19-.58-.39-1.31h0l-.08-.29c.04.12.06.21.08.29,0-.21,0-.46-.06-.64.23.56.02-.5.37.33-.06-.23.08-.04-.08-.62.17.17.08.41.17.7.37.77.17-1.06.68-.02.31.39.54,1.18.83,1.53-.02-.39-.25-.85-.25-.85.02-.37.12-.33.29-.08-.06-.21-.08-.37-.1-.64.1.04.25.85.27.48-.08-.25-.19-.66-.29-.93-.02-.02-.04-.06-.06-.08.02.1.04.19.06.25-.04-.17-.06-.25-.1-.29h-.04s.04-.02.04,0c0,0,.02,0,.04.02,0-.04,0-.08-.02-.12.02.04.06.1.1.21.15.19.33.62.48.81-.06-.41-.19-.6-.29-.87.15.17.37.31.54.95v.19s0,.06-.02.06v-.06c0-.15-.1-.52-.15-.62-.21-.48-.08.25-.04.5l.1.15c.23,1.39-.33-.17-.46-.04l.27,1-.33-.81c.02.27.12.83.23.97,0,.52-.17-.33-.12.23,0,.08.02.15.04.17l-.17-.27c.06.21.15.7.17.56-.04.62-.46-.68-.33.08v.06c-.29-.29-.17-.73-.56-1.56l.31,1.82-.21-.73s-.06.1.02.39c-.21-.48-.06-.33-.23-.79.04.68-.41-.23-.15.93-.19-.54,0-.46-.23-.81.29,1.26-.21-.19-.17.41.21.64.21.27.25.87-.35-1.08-.15.29-.29.1.02.12.06.27.12.48,0,.04-.21-.64-.29-.93.08.27.15.39.17.46-.23-.87-.29-.31-.52-.58.08.29-.15.54-.21.89l.04.15c-.27-.87-.37-.66-.52-.81.17.52.23.73.35.93h-.1c.04.12.06.23.1.33l-.15-.31h.02c-.1-.27-.19-.41-.27-.5l.21.64c-.15,0-.48-.68-.52-.21-.19-.6-.37-1.72-.68-2.07.08.33.25.89.35,1.02-.02-.04-.15-.25-.12-.1l.25.52c0,.27-.19-.46-.23-.37.15.46.06.35.19.7.02.04,0-.21.06-.04-.04.1-.04.41.04.77.02.1.04.19.06.25-.02-.08-.04-.17-.06-.25-.08-.27-.19-.62-.27-.66-.15,0,.12.58.12.83-.12-.31-.1.04-.33-.64-.04,0,.06.33.1.54-.17-.29-.33,0-.5-.75h0v-.08c-.46-.62-.33.54-.64.31l.08.23c-.23-.23-.33-.06-.6-.54-.04,0,.06.46.17.73-.17-.15-.27-.39-.27.02.25.37.1.37.21.27-.06.23.04.62-.31.02.27.58.19.77.06.6l-.06-.46s-.15,0-.19.08l.31.77c.1,1.02-1.06-1.41-.64.23-.27-.52,0-.44-.31-1.04-.08.15.23,1.29.21,1.31,0,.48-.58-1.06-.64-.7-.08-.27-.35-1.02-.6-1.22-.08.15.33,1.2.48,1.39.04,0,0-.08-.02-.17-.04-.04-.08-.08-.1-.15.02,0,.06.08.1.15.08.08.17.19.25.5l-.12-.27c.06.29-.1.33.1.77-.19-.23-.23-.44-.21-.6,0,.46-.23.1-.27.44,0,.08.02.12,0,.06v-.06c-.04-.17-.15-.48-.17-.48-.08.41-.31-.48-.52-.54.08.44.46.97.15.68.02.31.29.73.41.93-.35-.46-.1.44-.15.56l.17.19c-.1-.1-.12-.1-.17-.08l-.19-.56c0,.1-.04.12.06.35-.21-.33-.35-.91-.66-1.35.06.29-.31-.23,0,.5.06-.29.27.56.46.75-.04,0-.06,0-.04.08s.06.15.1.19h0c.06.06.04.06,0,0,.12.7-.44-.77-.6-.68.21.39.31.77.25.7.06-.04-.27-.68-.48-.95.02.35-.23-.19-.27-.12v.1-.27c-.21-.39-.25-.31-.37-.39.15.31.17.19.21.33-.41-.66.15.81-.19.39.06.29.35.75.39.95-.37-.46.12.6-.23.25-.23-.56-.15-.41-.5-.89l.41.27-.52-.7s.31.27.31.15c-.27-.39-.21-.27-.39-.73.29.85-.41-.37-.27.23l.64,1.31c.12.66-.62-.54-.66-.1l-.04-.27c-.29-.5-.17,0-.35-.19.23.44.27.62.37.89.04.06.06.15.12.29-.06-.1-.08-.21-.12-.29-.17-.33-.15.1-.6-.75l.21.62c-.04.31-.85-1.14-.93-.91.29.44.39.79.68,1.08-.06.02-.06.12-.23-.17.1.29-.46-.5-.29-.08.04.06.06.08.06.06,0,.04,0,.06-.04,0,0-.04-.02-.06-.04-.08-.12-.19-.37-.62-.41-.56.04.08.12.21.12.21-.12-.21-.25-.25-.46-.75.56,1.43-.54.15-.04,1.37h.04v.12s-.04-.08-.06-.12c-.21-.08-.41-.12-.54-.1.08.12.12.21.12.17.08.48-.79-1.16-.7-.62.31.73.31.31.39.6.79,1.41-.31-.08.04.81l.08.06c.19.52-.52-.41-.6-.23,0,0,.08.12.12.21-.52-.64-.85-.77-1.1-.89.37.52.23.25.54.81-.1-.04-.52-.89-.75-.97.15.31.21.62.56,1.2l.12-.04c.41.79-.17.06-.15.23l.21.33c-.25,0-.77-.83-.91-.66l-.15-.25c-.62-.75.21.5-.29-.04l.5.85c-.19-.17-.75-.64-.97-.73.48.56.81.79,1.12,1.1-.06.04-.25.08-.56-.29.08.06.25.25.19.1-.5-.6-.81-.83-.93-.75,1.08,1.56-.08.62.66,1.91-.62-.44-.27.54-.6.62-.77-1.26-.1,0-.97-1.22-.12-.04-.12,0-.08.08v-.06.06c.15.23.75.81.89,1.2-.27-.56-.6-.56-.89-1.2h0l.35.85c.21.39.25.23.46.52-.06.19.33.56.48.93-.31-.46-.5-.6-.46-.37l-.31-.64c-.66-.52.6,1.12-.06.62l.33.35c-.25-.17-.33.25-1.16-.64.08.15.31.5.44.56-.1.31-1.29-.66-1,.06l.25.27c-.1-.06-.5-.5-.33-.17.1.12.25.27.25.31-.1-.08-.52-.44-.44-.23l.31.29c.06.31-.29.06-.64-.21h0v-.19h0c-.35.29-.7.54-.64.21l.31-.29c.08-.21-.33.12-.44.23,0-.04.15-.19.25-.31.19-.33-.21.1-.33.17l.25-.27c.29-.73-.89.25-1-.06.1-.06.33-.41.44-.56-.83.91-.89.5-1.16.64l.33-.35c-.64.52.6-1.14-.06-.62l-.31.64c.04-.21-.15-.06-.46.37.15-.37.54-.77.48-.93.19-.29.23-.12.46-.52l.35-.85h0c-.27.64-.6.64-.89,1.2.12-.39.73-.97.89-1.2,0-.02,0-.04.02-.06v.06s0-.12-.1-.08c-.87,1.24-.21-.04-.97,1.22-.31-.08.02-1.04-.6-.62.75-1.29-.41-.33.66-1.91-.12-.1-.44.15-.93.75-.06.15.1-.04.19-.1-.29.37-.5.35-.56.29.31-.31.66-.52,1.12-1.1-.23.08-.77.56-.97.73l.5-.85c-.5.54.33-.7-.29.04l-.15.25c-.15-.17-.68.66-.91.66l.21-.33c.02-.17-.56.56-.15-.23l.12.04c.35-.58.41-.89.56-1.2-.23.08-.62.93-.75.97.31-.56.17-.29.54-.81-.25.12-.58.25-1.1.89.04-.08.12-.21.12-.21-.08-.19-.79.75-.6.23l.08-.06c.37-.87-.75.6.04-.81.1-.29.08.12.39-.6.08-.54-.79,1.1-.7.62,0,.06.04-.04.12-.17-.12-.02-.35.02-.54.1,0,.04-.04.08-.06.12v-.1h.06c.5-1.24-.6.04-.04-1.37-.21.5-.35.54-.46.75,0,0,.08-.12.12-.21-.04-.06-.29.37-.41.56,0,.02,0,.04-.04.08-.04.04-.04,0-.04,0,0,.02.02,0,.06-.06.17-.44-.41.35-.29.08-.17.29-.17.19-.23.17.29-.29.37-.62.68-1.08-.08-.23-.89,1.22-.93.91l.21-.62c-.48.85-.44.44-.6.75-.04.08-.06.17-.12.29.04-.15.08-.21.12-.29.1-.29.15-.46.37-.89-.17.19-.06-.31-.35.19l-.04.27c-.04-.44-.81.77-.66.1l.64-1.31c.15-.6-.56.62-.27-.23-.19.46-.1.33-.39.73,0,.1.25-.19.31-.15l-.52.7.41-.27c-.35.48-.27.35-.5.89-.33.35.17-.7-.23-.25.04-.21.31-.66.39-.95-.33.41.23-1.06-.19-.39.04-.15.06,0,.21-.33-.15.08-.17,0-.37.39v.27-.1s-.31.48-.27.12c-.21.29-.54.93-.48.95-.06.08.04-.31.25-.7-.17-.08-.73,1.39-.6.68-.04.04-.06.04,0,0h0s.06-.1.1-.19c0-.08,0-.1-.04-.08.19-.19.39-1.04.46-.75.29-.73-.06-.21,0-.5-.29.46-.46,1.02-.66,1.35.1-.23.06-.25.06-.35l-.19.56s-.06-.04-.17.08l.17-.19c-.04-.12.23-1.04-.15-.56.12-.21.39-.62.41-.93-.29.29.06-.25.15-.68-.21.06-.44.95-.52.54-.02,0-.12.31-.17.48v.06c-.02.06-.02,0,0-.06-.04-.33-.27.02-.27-.44,0,.17-.02.37-.21.6.23-.44.06-.46.1-.77l-.12.27c.08-.31.17-.41.25-.5.02-.06.06-.15.1-.15-.02.06-.06.1-.1.15-.04.08-.06.19-.02.17.17-.19.56-1.24.48-1.39-.23.21-.5.93-.6,1.22-.04-.35-.66,1.18-.64.7-.04,0,.27-1.16.21-1.31-.31.6-.04.52-.31,1.04.41-1.64-.75.81-.64-.23l.31-.77s-.08-.15-.19-.08l-.06.46c-.12.17-.21-.04.06-.6-.37.58-.25.21-.31-.02.1.1-.04.1.21-.27,0-.41-.1-.17-.27-.02.1-.27.21-.7.17-.73-.27.46-.39.31-.6.54l.08-.23c-.31.23-.19-.93-.64-.31v.1h0c-.17.75-.33.46-.5.73.04-.19.15-.52.1-.54-.23.68-.21.33-.33.64,0-.27.27-.83.12-.83-.06.04-.19.41-.27.66,0,.08-.04.17-.06.25,0-.06.04-.15.06-.25.08-.35.08-.66.04-.77.08-.17.04.08.06.04.12-.37.04-.25.19-.7-.04-.06-.23.64-.23.37l.25-.52c0-.15-.1.06-.12.1.08-.12.25-.68.35-1.02-.31.35-.48,1.47-.68,2.07-.04-.48-.37.21-.52.21l.21-.64s-.17.21-.27.5h.02l-.15.31c.04-.12.08-.23.1-.31h-.1c.12-.25.21-.44.35-.95-.15.15-.25-.06-.52.81l.04-.15c-.04-.35-.29-.6-.21-.89-.23.25-.29-.29-.52.58.04-.04.08-.17.17-.46-.08.29-.27.95-.29.93.04-.21.08-.35.12-.48-.15.19.06-1.18-.29-.1.04-.6.06-.23.25-.87.04-.6-.44.85-.17-.41-.23.35-.04.27-.23.81.27-1.16-.19-.25-.15-.93-.17.46,0,.31-.23.79.08-.29.04-.35.02-.39l-.21.73.31-1.82c-.39.81-.27,1.26-.58,1.56v-.06c.15-.77-.27.54-.31-.08.02.17.1-.35.17-.56l-.17.27s.04-.08.04-.17c.04-.58-.15.29-.12-.23.1-.12.21-.7.23-.97l-.33.81.27-1c-.12-.1-.66,1.45-.46.04l.1-.15c.04-.23.17-.97-.04-.5-.04.08-.15.48-.17.62v.06-.25c.15-.64.37-.79.52-.95-.08.27-.23.46-.29.87.15-.19.33-.6.48-.81l.25-.04ZM246.35,135.47l-.06.39-.17.15.23-.54ZM268.65,135.66l.23.54-.17-.15-.06-.39ZM274.94,137.77c0,.83-.1-.6-.29-.44l.12-.23c.04.27.08.62.17.66ZM274.36,138.35c-.12-.23-.15-.27-.15-.52.12.1.1.37.15.52ZM271.52,138.12v.27c-.08-.25-.02-.21,0-.27ZM270.77,139.49s-.08-.23-.23-.6l.23.6ZM269.96,140.49l-.19-.17.12.1.06.08v-.02ZM264.11,142.73l-.35-.68c.1.1.54.87.35.68ZM261.36,143.39c.19.35.25.6,0,.29.02-.08-.08-.35,0-.29ZM257.5,148.1v-.19h0c-.1.02-.19,0-.23-.06l.1-.12s.04-.25.15-.46v.19c.1.21.12.35.15.46l.1.12s-.12.08-.23.06h-.04ZM253.62,143.49c-.25.29-.19.04,0-.29.08-.06-.02.21,0,.29ZM251.24,141.84l-.35.68c-.19.17.25-.6.35-.68ZM245.2,140.14l-.19.17.06-.08.12-.1v.02ZM244.44,138.71c-.15.35-.12.52-.23.6l.23-.6ZM243.46,138.21v-.27s.08,0,0,.27ZM240.77,137.63c0,.25-.02.29-.15.52.04-.15,0-.41.15-.52ZM240.35,137.15c-.19-.15-.27,1.26-.29.44.08-.04.15-.39.17-.66l.12.23ZM239.27,133.63l.04-.08s0-.06.02-.1v.04l-.02.08c0,.08-.04.08-.04.08l-.1.17c.06-.19.08-.17.1-.17v-.02ZM238.72,134.95c.25-.89.21-.58.44-1.33-.1.75-.33,1.41-.48,1.78.04-.15.1-.35.1-.54-.21.5-.29.44-.23-.19.12-.5.12-.1.19-.29-.06.29-.1.64-.02.58v-.02ZM238.61,133.83l.12-.19-.21.79s0-.39.06-.6h.02ZM219.74,147.25l-.23.12.23-.54v.41ZM208.86,144.49l.04-.19c.15-.15.21.35.29.44-.15.41-.21-.58-.33-.23l-.06.25c.02-.12.04-.19.06-.25v-.02ZM207.51,144.39l.06-.08s0-.06.02-.1l.04.04-.06.08s-.04.08-.06.08l-.12.17c.06-.19.1-.17.12-.17v-.02ZM206.43,145.17c-.1.08-.06-.39,0-.6l.19-.19-.19.79ZM206.52,145.42c.12-.5.19-.1.25-.29-.06.29-.04.66.06.58.25-.91.23-.58.46-1.33-.04.75-.27,1.41-.44,1.78.02-.15.1-.35.08-.54-.25.5-.39.44-.41-.21ZM209.75,148.45c.15-.04.15-.41.15-.68l.27.25c-.37-.19-.17,1.29-.39.41l-.02.02ZM210.89,149.11c.04-.15-.06-.44.1-.52.08.25.04.31-.1.52ZM215.8,149.4l-.08-.29s.17.02.08.29ZM217.4,150.65l.19-.6c-.12.37-.04.54-.19.6ZM218.73,161.45c.06-.15.19-.31.23-.5-.35.41-.48.35-.33-.29.25-.46.19-.06.31-.23-.12.27-.21.62-.08.58.48-.81.37-.5.77-1.18-.23.73-.62,1.31-.87,1.64l-.02-.02ZM218.77,159.81l.21-.15-.37.73c-.12.06.04-.39.17-.58ZM219.12,151.83l.08-.06.19-.08-.27.17v-.02ZM220.72,164.27c.15,0,.25-.35.31-.62l.17.29c-.29-.25-.5,1.2-.48.31v.02ZM221.57,165.14c.08-.12.06-.44.25-.48,0,.25-.04.31-.25.48ZM225.9,166.49v-.29s.15.06,0,.29ZM227,168.04l.33-.54c-.21.33-.19.52-.33.54ZM228.22,169.54l.08-.04.19-.04-.29.1.02-.02ZM236.89,175.11c-.25.1.33-.56.48-.62l-.48.62ZM240.81,177.73c-.33.23-.25-.04,0-.35.1-.04-.02.25,0,.35ZM248.63,187.95l.27-.08v.08h-.27ZM266.08,188.16v-.08l.27.08h-.27ZM274.17,177.93c.04-.1-.1-.39,0-.35.23.31.31.58,0,.35ZM278.11,175.3l-.48-.62c.15.06.73.73.48.62ZM286.49,169.64l.19.04.08.04-.29-.1.02.02ZM287.65,167.69l.33.54c-.15-.02-.12-.21-.33-.54ZM289.08,166.41v.29c-.15-.23-.04-.21,0-.29ZM293.18,164.85c.19.04.17.35.25.48-.19-.19-.25-.23-.25-.48ZM293.8,164.15l.17-.29c.06.27.17.62.31.62.02.87-.19-.58-.48-.31v-.02ZM295.69,161.35v-.06c-.04-.15-.21-.5-.29-.56-.35-.41-.1.29-.02.52l.17.1c.46,1.35-.52-.04-.68.12l.5.91-.56-.68c.06.27.27.81.44.89.06.52-.29-.27-.17.29.02.08.04.12.08.17l-.27-.23c.12.19.27.66.31.5,0,.64-.75-.52-.52.23l.04.04c-.5-.17-.35-.66-1-1.37l.6,1.76-.35-.66s-.08.12.06.39c-.35-.39-.12-.31-.41-.7.12.7-.62-.06-.15,1.04-.31-.5-.02-.48-.39-.75.52,1.18-.31-.1-.21.52.35.58.33.19.44.81-.6-.97-.21.37-.44.23.06.12.12.27.21.46-.02.04-.35-.58-.5-.83.15.25.23.35.29.39-.41-.81-.46-.21-.83-.35.15.27-.21.64-.27,1.04l.08.12c-.46-.79-.6-.54-.83-.62.25.48.39.66.58.83l-.15.06s.12.17.19.27l-.23-.27h.04c-.17-.25-.29-.37-.44-.41l.35.58c-.21.06-.77-.52-.79,0-.31-.56-.64-1.66-1.1-1.89.15.31.41.83.56.91-.04-.02-.21-.21-.19-.06l.37.46c0,.29-.29-.39-.35-.29.23.44.1.33.29.68.04.02,0-.23.1-.06-.06.12-.04.46.08.79.04.08.08.17.1.23-.04-.08-.08-.15-.1-.23-.12-.25-.31-.58-.41-.6-.21.06.21.56.23.83-.21-.27-.17.1-.52-.54-.06.04.1.33.17.52-.25-.23-.52.17-.79-.58h0s0-.04-.02-.08c-.68-.48-.48.73-.95.62l.12.21c-.33-.15-.5.1-.91-.29-.06.04.1.46.27.7-.25-.08-.39-.31-.39.17.37.29.15.35.31.19-.08.29.08.64-.48.19.39.5.27.75.08.64l-.1-.46c-.15-.02-.21.08-.27.17l.48.68c.15,1.06-1.58-1.04-.97.54-.41-.44,0-.48-.46-.97-.12.21.35,1.31.29,1.35,0,.52-.87-.89-.95-.48-.12-.27-.52-.95-.87-1.06-.12.21.46,1.16.7,1.29.06,0,.02-.1-.04-.19-.06-.02-.12-.06-.15-.12.04,0,.1.06.15.12.12.06.25.12.35.44l-.19-.23c.08.31-.17.41.15.79-.29-.17-.33-.37-.31-.56,0,.5-.33.23-.41.6.02.08.04.12,0,.08v-.08c-.06-.17-.21-.46-.25-.44-.12.52-.46-.37-.75-.33.12.46.64.85.21.68.04.33.41.66.6.83-.52-.33-.17.56-.21.73l.25.12c-.15-.08-.19-.04-.25,0l-.27-.52c0,.12-.06.17.08.35-.29-.27-.52-.83-.93-1.18.08.31-.44-.1,0,.56.1-.35.37.48.64.6-.04,0-.06.04-.06.12.04.08.1.12.15.15h0c.08.04.06.04,0,0,.17.73-.62-.64-.87-.46.29.33.44.73.33.66.1-.08-.37-.62-.66-.85.04.39-.33-.08-.39,0v.1-.31c-.29-.33-.33-.23-.54-.27.19.29.25.12.29.27-.58-.54.19.85-.29.56.1.29.48.66.54.89-.54-.31.15.64-.33.39-.29-.52-.21-.41-.68-.77l.58.08-.73-.54s.44.15.44,0c-.39-.31-.29-.21-.54-.64.39.81-.6-.21-.39.39l.89,1.16c.15.7-.89-.29-.97.23l-.06-.27c-.39-.44-.25.08-.5-.04.31.37.35.56.5.85.04.06.08.12.17.27-.06-.1-.12-.19-.17-.27-.23-.29-.21.19-.85-.56l.27.62c-.08.39-1.16-.87-1.29-.56.41.35.52.73.91.89-.08.06-.08.19-.31-.08.15.27-.64-.35-.41.08.06.04.08.06.1.04,0,.04,0,.06-.06.04,0-.02-.02-.06-.04-.08-.17-.15-.5-.54-.58-.44.06.08.15.19.15.19-.15-.19-.35-.15-.62-.62.73,1.37-.77.46-.15,1.64h.06v.12s-.04-.08-.06-.12c-.27,0-.58.06-.77.17.1.1.17.19.17.12.08.52-1.06-.95-.97-.37.39.7.41.23.54.52,1.04,1.24-.44.08.02.91l.1.04c.25.52-.7-.21-.83.04,0,0,.1.1.17.19-.68-.5-1.14-.48-1.47-.48.5.41.31.17.7.68-.15,0-.66-.79-.97-.77.19.31.27.64.7,1.16l.19-.1c.52.73-.23.17-.21.35l.27.27c-.33.12-1-.58-1.22-.31l-.17-.25c-.81-.58.25.5-.39.1l.64.75c-.27-.08-1-.39-1.29-.37.6.44,1.06.52,1.47.73-.08.08-.37.23-.75-.06.1.04.31.17.25,0-.64-.46-1.06-.58-1.24-.39,1.37,1.33-.15.79.77,1.97-.83-.19-.41.81-.85,1.08-.95-1.16-.15.08-1.22-1-.15,0-.17.06-.1.15v-.06.06c.19.21.95.6,1.1,1.02-.33-.56-.77-.37-1.1-1.02h0l.39.89c.27.37.33.15.56.39-.1.27.39.52.56.91-.37-.39-.64-.48-.58-.23l-.37-.62c-.85-.29.73,1.1-.12.81l.44.25c-.35-.06-.48.5-1.51-.19.1.15.39.46.52.48-.17.44-1.66-.15-1.33.62l.31.23c-.15,0-.62-.35-.41-.04.12.1.31.23.29.27-.12-.06-.64-.27-.56-.04l.37.21c.08.64-1.22-.17-1.68-.04.85.7.89,1.2.91,1.43l.12.1c-.23.46-1.26.08-1.91.17.75.97-.25,1.06,0,1.85-.12-.19-.68-.52-.83-.52.1.23-.81-.23,0,.37v-.04c.75.66.39.68.31.83l-1.08-.77c1.26,1.49-1.33.54-.08,1.76-.33-.1-.41,0-.75-.1l.58.41c-.04.35-.06.52-.41.73l.46.23c-.08.19-1.85-.93-1.99-.81l.85.64c-.23.29.33,1.12-.68.89.12.08.39.25.46.21-.08.17.21.95-.97.1.79.52-.15.37-.6.31l.6.35c-.85-.33-1.06-.46-1.41-.39.04.08.33.27.35.23.08.23-.64-.25-.48.12l.44.17c-.06.19-.25.06-.77-.12-.31-.04-.06.41.48.77-.35-.19-.85-.35-.75-.17.19.15.35.19.41.21.23.52-.95,0-.5.54.19.12.29.19.33.25.12-.23.21-.41.15-.44.56.33.54.56,1.39.89-.5-.1-1.58-.41-1.41-.08.04.04.1.08.19.15h.08s-.04.1-.17.08c.06.1.1.19.08.25.46.29.12.35.1.46-.6-.35-.58-.19-1.02-.58.04.04.08.02.15,0h-.06s-.08-.08-.12-.12c-.41-.19-.85-.37-1.06-.44.79.62,1.1,1.12,1.62,1.45-.52.08-.6.52-1.87.04-.19,0,.29.27.46.39.15,0,.17-.04.33.02-.39,0-.39.39-1.22,0,.25.39.81.29.52.5l.27.1c1.02,1.22-2.59-.21-1.22,1.26-.08-.1-.12-.15-.25-.23.19.5-.12.77-.41,1.06v-.19c-.29-.29-.6-.56-.41-1.06-.12.08-.17.12-.25.23,1.37-1.47-2.24-.04-1.22-1.26l.27-.1c-.29-.21.27-.1.52-.5-.83.39-.83,0-1.22,0,.19-.06.19,0,.33-.02.17-.12.64-.41.46-.39-1.26.46-1.35.02-1.87-.04.52-.33.83-.83,1.62-1.45-.21.08-.64.27-1.06.44-.02.04-.06.06-.12.12h-.06c.06.04.1.06.15,0-.44.39-.41.23-1.02.58-.02-.1-.35-.17.1-.46-.02-.06.02-.12.08-.25-.12.02-.19,0-.17-.06h.08s.12-.12.19-.15c.17-.33-.91-.02-1.41.08.85-.31.83-.56,1.39-.89-.06,0,.02.21.15.44.04-.04.15-.12.33-.25.48-.54-.73,0-.5-.54.08,0,.23-.06.41-.21.08-.19-.41,0-.75.17.52-.35.79-.81.48-.77-.5.19-.7.33-.77.12l.44-.17c.17-.37-.56.12-.48-.12.02.04.31-.15.35-.23-.35-.06-.56.06-1.41.39l.6-.35c-.48.06-1.39.21-.6-.31-1.18.85-.89.06-.97-.1.06.02.33-.12.46-.21-1.02.23-.46-.6-.68-.89l.85-.64c-.15-.15-1.91,1-1.99.81l.46-.23c-.37-.21-.39-.37-.41-.73l.58-.41c-.33.1-.41,0-.75.1,1.24-1.22-1.33-.25-.08-1.76l-1.08.77c-.08-.15-.44-.17.31-.83v.04c.83-.6-.08-.15.02-.37-.15,0-.7.33-.83.52.25-.79-.77-.87,0-1.85-.64-.1-1.68.29-1.91-.17l.12-.1c.02-.25.06-.73.91-1.43-.44-.12-1.76.68-1.68.04l.37-.21c.08-.23-.41,0-.56.04,0-.04.17-.17.29-.27.21-.33-.27.02-.41.04l.31-.23c.33-.75-1.16-.17-1.33-.62.15,0,.41-.33.52-.48-1.04.68-1.16.12-1.51.19l.44-.25c-.85.29.73-1.1-.12-.81l-.37.62c.04-.25-.21-.17-.58.23.17-.39.66-.66.56-.91.25-.25.31-.02.56-.39l.39-.89h0c-.33.66-.77.48-1.1,1.02.15-.44.91-.81,1.1-1.02,0-.02,0-.04.04-.06v.06s0-.12-.15-.15c-1.08,1.08-.27-.17-1.22,1-.44-.29-.04-1.29-.85-1.08.91-1.18-.6-.64.77-1.97-.17-.19-.58-.06-1.24.39-.06.15.15,0,.25,0-.39.31-.66.15-.75.06.41-.21.87-.29,1.47-.73-.29-.02-1.04.27-1.29.37l.64-.75c-.64.39.41-.68-.39-.1l-.17.25c-.23-.29-.89.44-1.22.31l.27-.27c0-.19-.73.37-.21-.35l.19.1c.46-.52.54-.85.7-1.16-.29,0-.81.77-.97.77.39-.5.23-.27.7-.68-.35,0-.79-.02-1.47.48.06-.08.17-.19.17-.19-.12-.25-1.08.48-.83-.04l.1-.04c.46-.85-1.02.33.02-.91.12-.29.12.19.54-.52.08-.58-1.06.89-.97.37,0,.06.04,0,.17-.12-.19-.1-.48-.15-.77-.17-.02.04-.04.08-.06.12v-.12h.06c.64-1.18-.87-.25-.15-1.64-.27.48-.46.44-.62.62,0,0,.1-.1.15-.19-.06-.1-.39.29-.58.44,0,.02-.02.04-.04.08-.06.02-.06,0-.06-.04,0,.04.04,0,.1-.04.23-.41-.56.21-.41-.08-.21.27-.23.15-.31.08.39-.17.5-.54.91-.89-.15-.31-1.2.95-1.29.56l.27-.62c-.62.75-.62.27-.85.56-.04.08-.08.17-.17.27.06-.12.12-.21.17-.27.15-.27.19-.46.5-.85-.25.1-.1-.39-.5.04l-.06.27c-.08-.52-1.14.48-.97-.23l.89-1.16c.19-.6-.79.44-.39-.39-.25.44-.15.31-.54.64,0,.12.35-.1.44,0l-.73.54.58-.08c-.5.35-.39.25-.68.77-.48.23.21-.73-.33-.39.04-.21.44-.58.54-.89-.48.29.29-1.1-.29-.56.04-.15.1,0,.29-.27-.21.04-.25-.06-.54.27v.21s.02.04,0,.1v-.1s-.44.39-.39,0c-.29.21-.77.77-.66.85-.1.04.04-.33.33-.66-.25-.19-1.04,1.2-.87.46-.04.02-.08.02,0,0h0s.1-.08.15-.15c0-.08-.02-.12-.06-.12.27-.12.54-.95.64-.6.41-.66-.1-.27,0-.56-.44.35-.66.91-.93,1.18.15-.21.08-.23.08-.35l-.27.52s-.1-.08-.25,0l.25-.12c-.06-.17.31-1.06-.21-.73.19-.17.56-.48.6-.83-.44.17.08-.23.21-.68-.29-.04-.62.85-.75.33-.04-.02-.19.29-.25.44v.08s-.04,0,0-.08c-.06-.37-.41-.1-.41-.6,0,.19-.02.39-.31.56.31-.37.06-.5.15-.79l-.19.23c.1-.31.25-.37.35-.44.04-.06.1-.12.15-.12-.04.06-.08.08-.15.12-.06.08-.08.17-.04.19.25-.12.81-1.1.7-1.29-.33.12-.75.79-.87,1.06-.08-.41-.95,1-.95.48-.04-.04.41-1.14.29-1.35-.46.52-.06.56-.46.97.6-1.6-1.12.52-.97-.54l.48-.68s-.12-.19-.27-.17l-.1.46c-.19.1-.31-.15.08-.64-.54.46-.39.1-.48-.19.17.17-.06.1.31-.19,0-.46-.17-.23-.39-.17.17-.23.33-.66.27-.7-.41.37-.58.15-.91.29l.12-.21c-.48.08-.25-1.1-.95-.62,0,.04-.02.06-.02.1h0c-.27.73-.52.33-.79.56.08-.19.23-.5.17-.52-.35.64-.31.27-.52.54,0-.27.44-.77.23-.83-.1,0-.29.35-.41.6-.02.08-.06.15-.1.23,0-.04.06-.12.1-.23.15-.35.15-.66.08-.79.12-.15.06.1.1.06.21-.33.06-.25.29-.68-.06-.1-.35.58-.35.29l.37-.46c.02-.15-.15.02-.19.06.15-.08.41-.6.56-.91-.48.23-.79,1.35-1.1,1.89-.04-.52-.58.04-.79,0l.35-.58c-.15.04-.27.17-.44.39h.04l-.23.27c.06-.1.12-.21.19-.27l-.15-.06c.19-.17.33-.35.58-.83-.25.08-.37-.17-.83.62l.08-.12c-.06-.39-.41-.77-.27-1.04-.35.17-.41-.44-.83.35.06-.04.15-.15.29-.39-.15.27-.48.89-.5.83.08-.19.15-.33.21-.46-.23.12.17-1.2-.44-.23.1-.6.1-.23.44-.81.1-.6-.73.68-.21-.52-.35.27-.08.27-.39.75.48-1.1-.27-.33-.15-1.04-.29.41-.04.31-.41.7.15-.27.1-.35.06-.39l-.35.66.6-1.76c-.64.68-.5,1.2-1,1.37l.04-.04c.23-.75-.5.41-.52-.23.02.17.19-.31.31-.5l-.27.23s.06-.08.08-.17c.1-.58-.23.23-.17-.29.17-.1.37-.64.44-.89l-.56.68.5-.91c-.19-.17-1.14,1.2-.68-.12l.17-.1c.08-.23.33-.93-.02-.52-.08.08-.25.41-.29.56v.06-.27c.31-.58.64-.64.89-.75-.17.23-.37.37-.52.77.23-.15.56-.5.79-.62.06-.08.12-.15.17-.17,0,.04-.04.08-.06.12h.06s.04,0,.08.02c-.02,0-.04,0-.08-.02-.04.02-.08.1-.17.25,0-.06.06-.15.1-.25-.04,0-.06.02-.1.04-.17.23-.37.6-.52.83,0,.39.31-.37.46-.37-.06.27-.1.44-.23.62.27-.19.41-.21.41.19,0,0-.37.37-.44.77.46-.25.85-.95,1.37-1.24.85-.87.41.95,1.02.31.15-.27.04-.56.29-.66-.29.54-.06.39-.17.62.56-.7.17.29.56-.19-.12.17-.12.44-.15.64.04-.08.08-.17.15-.27l-.15.27h0c-.35.66.06.35-.66,1.2.77-.89.33.46,1.31-1v-.23l.15.44h0s-.04-.15-.04-.31l.04.29c.06.17.17,0-.02.77-.15.12-.25.08-.39.23-.17.66.54-.35.73-.31-.25.48-.25.1-.5.7.06.12.35-.19.52-.27l-.15.27c-.04.75.79-1.26.52-.27.08-.17.19-.31.27-.48-.08.33-.15.89-.5,1.14.08.04.31-.12.52-.41.12-.44,0-.25.25-.77l.52-.08s-.17.25-.23.23c-.31,1.64,1.56-.73,1.14,1.22.19-.46.25-.35.46-.62.08.23.39.23.39.58l-.21.27c.58-.17,1.12-.46,1.26-.15.08-.12-.25.41-.33.48.5-.44-.27,1.39.44.29v-.12c.23.39,1.14-.19,1.6-.12-.31.73-.27-.06-.66.79.1.41.73,0,.85.39-.1.06-.15.15-.19.17,0,.6.39-.68.56-.44-.23.31-.25.41-.29.62l.41-.5s-.31.5-.44.64c.54-.64.56.02,1.06-.58-.08.19-.54.77-.66,1.04,0,.27.25.06.5-.15.21-.33.25-.29.29-.21.1-.06.17-.04.15.1-.1.06-.12-.04-.15-.1-.08.04-.19.12-.29.21h0c-.21.52.04.58-.04.62.08.35.27-.35.7-.64v-.39l.44.04-.33.25c-.02.35.5-.12.66,0l.17-.41.35-.1c-.5.79.12.33-.56,1.14.08.6,1-.23,1.37-.08-.06-.04-.15.12-.23.25.06.29.46-.02.85-.35-.19.23-.29.27-.44.48.21.17.44-.35.85-.41-.29.27-.39.46-.37.58.19-.29.37-.44.48-.5-1.24,1.39-.17.79-1.12,1.91.23-.31,1.08-.73,1.41-1.39l-.15.06c.29-.41.27-.19.35-.19.12-.06.19-.08.04,0h-.04c-.08.04-.19.1-.25.21.7-.27.73.46,1.39.35-.15.12-.5.29-.5.48.21.48,1.02-.12,1.68-.23-.7.95-.52-.17-1.2.73.56.08,1.22.04,2.05-.1-.91,1.47.87-.23.31,1.04.33-.48.6-.54.77-.44h0c.06.06.12.15.15.23l-.15-.23h-.02c-.35.33-.21.46-.46.68.46-.31.97-.19.25.66.73-.81.25.25.85-.25,0-.1.08-.25.19-.46l-.06.33s-.1.08-.15.12c-.1.44.5.1.48.52.37-.58.41-.08.66-.25-.04,0-.17.06-.21.15-.33.5.56-.21.46.15-.1.23-.44.48-.37.58.31-.37,1-.54.73,0-.04-.04-.21.15-.37.25,1.1-.19.97,1.04,2.16.79l-.64.52c-.39,1.06,1.14-.81,1.33-.48.46.93.33,2.45,1.39,2.7.23-.12.19-.23.41-.48,0,.12-.48.62-.1.39l.29-.33c-.54,1.12,1.47.29.33,1.82.81-.21.1.83,1.24.46-.19.37-.68.39-.62.62l.83-.15h-.06c1.29-.54-.31,1.87.77,1.62h-.06c-.25.23-.44.54-.31.54.19-.12.23-.25.39-.46.73,0,.81.08,1.16.31-.46.17-.21.37-.68.81.39-.19.48-.48.89-.54.27.21.04.79.04,1.12.52-.29.48-.08,1.04-.52.27.25.62.23.91.58l-.19.17c.77-.46-.1.58.35.33-.25.19-.37.23-.56.39h.35c-.27.06-.95.54-.93.73.6-.25.29-.29.75-.54l-.6.54c.15.04.91-.5,1-.77.29.35.87.46,1.02.85l-.46.29c.29.06.48.29.19.68.12-.08.39-.21.52-.35.68-.21-.48.44,0,.33-.15.04-.27.06-.46.19l.85.04c-.31.25-.83,1.02-.41,1,.19-.12.39-.35.39-.44h-.1s.1-.02.1,0h.25l-.68.62.79-.31.15-.1v.04l-.15.06-.62.46c.21.04,1.06-.5,1.08-.35-.12.66-.39.75-.79,1.43,1.24-.81.27.46,1.18-.08-.66,1,.27,1.12.33,1.78l-.15.04c-.44.58,1.1-.37,1,0l-.23.06c-.46.66.37.81,1.06.77v.19c.7.04,1.51-.08,1.06-.77l-.23-.06c-.1-.39,1.43.58,1,0l-.15-.04c.06-.64,1-.79.33-1.78.91.54-.04-.75,1.18.08-.39-.68-.68-.77-.79-1.43,0-.15.87.39,1.08.35l-.62-.46-.15-.06v-.04l.15.1.79.31-.68-.62h.25s.02-.04.1,0h-.1s.21.29.39.41c.41.02-.1-.75-.41-1l.85-.04c-.19-.12-.31-.17-.46-.19.46.1-.7-.54,0-.33.12.12.37.27.52.35-.29-.37-.1-.62.19-.68l-.46-.29c.15-.39.73-.5,1.02-.85.08.27.85.81,1,.77l-.6-.54c.46.25.15.29.75.54.04-.19-.66-.66-.93-.75h.35c-.19-.15-.31-.19-.56-.37.46.25-.41-.79.35-.33l-.19-.17c.29-.35.62-.33.91-.58.54.44.52.23,1.04.52,0-.33-.23-.91.04-1.12.41.06.5.33.89.54-.48-.44-.23-.62-.68-.81.33-.23.41-.29,1.16-.31.17.21.21.33.39.46.15,0-.06-.33-.31-.52h-.06c1.08.21-.52-2.2.77-1.62h-.06l.83.12c.06-.23-.44-.23-.62-.62,1.12.37.44-.66,1.24-.46-1.14-1.53.87-.68.33-1.82l.29.33c.39.23-.08-.27-.1-.39.23.25.19.37.41.48,1.06-.25.93-1.78,1.39-2.7.19-.31,1.72,1.56,1.33.48l-.64-.52c1.18.25,1.06-.97,2.16-.79-.17-.12-.31-.31-.37-.25-.29-.54.39-.37.73,0,.04-.1-.27-.35-.37-.58-.12-.35.79.35.46-.15-.06-.08-.17-.12-.21-.15.27.17.29-.33.66.25,0-.41.58-.08.48-.52-.04-.04-.08-.06-.15-.12l-.06-.33c.12.21.17.35.19.46.6.52.1-.56.85.25-.73-.85-.21-.97.25-.66-.25-.23-.1-.35-.46-.68h-.02l-.15.23s.06-.19.15-.23h0c.17-.1.44-.04.77.44-.56-1.26,1.22.44.31-1.04.83.15,1.49.19,2.05.1-.68-.89-.52.23-1.2-.73.66.08,1.47.7,1.68.23,0-.19-.35-.35-.5-.48.66.1.68-.62,1.39-.35-.06-.08-.17-.15-.25-.21h-.04c-.15-.06-.06-.06.04,0,.08,0,.06-.25.35.19l-.15-.06c.33.66,1.16,1.08,1.41,1.39-.95-1.12.12-.52-1.12-1.91.1.04.29.21.48.5,0-.12-.08-.31-.37-.58.41.06.62.56.85.41-.15-.21-.25-.25-.44-.48.39.31.77.64.85.35-.1-.12-.19-.29-.23-.25.37-.15,1.26.68,1.37.08-.7-.83-.08-.37-.56-1.14l.35.1.17.41c.17-.12.68.35.66,0l-.33-.25.41-.04v.39c.44.29.64,1,.73.64-.1-.04.17-.1-.04-.62h0c-.1-.08-.21-.17-.29-.21-.02.06-.04.17-.15.1,0-.15.06-.17.15-.1.04-.08.06-.12.29.21.25.21.5.41.5.15-.12-.27-.58-.85-.66-1.04.5.6.52-.06,1.06.58-.15-.15-.39-.56-.44-.64l.41.5c-.02-.23-.06-.31-.29-.62.17-.25.54,1.04.56.44-.04-.02-.08-.12-.19-.17.15-.39.77.02.85-.39-.41-.85-.35-.06-.66-.79.48-.08,1.37.52,1.62.12v.12c.7,1.1-.08-.7.44-.29-.1-.06-.44-.6-.33-.48.15-.33.68,0,1.26.15l-.21-.27c0-.33.31-.35.39-.58.21.27.27.17.46.62-.41-1.95,1.45.41,1.14-1.22-.06.02-.27-.19-.23-.23l.52.08c.23.52.1.33.25.77.21.27.44.46.52.41-.35-.25-.41-.81-.5-1.14.06.17.19.31.27.48-.27-1,.56,1,.52.27l-.15-.27c.17.08.46.39.52.27-.25-.6-.25-.23-.5-.7.17-.04.87.97.73.31-.15-.12-.25-.08-.39-.23-.21-.77-.08-.6-.02-.77l.04-.29c0,.15,0,.23-.04.29h0l.1-.41v.23c1,1.45.56.1,1.33,1-.73-.85-.31-.54-.66-1.2h0l-.15-.27c.06.1.1.19.15.27-.02-.23-.02-.48-.15-.64.39.48,0-.52.56.19-.1-.23.12-.08-.17-.62.25.1.15.39.29.66.6.62.17-1.18,1.02-.31.52.29.91,1,1.37,1.24-.06-.39-.44-.77-.44-.77,0-.39.17-.37.41-.19-.12-.19-.17-.35-.23-.62.15,0,.44.77.46.37-.15-.23-.35-.62-.52-.83-.04-.02-.06-.04-.1-.04.04.08.08.19.1.25-.08-.17-.12-.23-.17-.25-.02,0-.06,0-.08.02.02-.04.04-.04.08-.02h.06s-.04-.08-.06-.12c.04.02.1.08.17.17.23.15.56.5.79.62-.12-.39-.35-.54-.52-.77.25.1.58.17.89.75v.27l-.06.02ZM219.64,159.98c.1-.17.12-.15.17-.12l.08-.06s.04-.06.04-.1v.04l-.04.06c-.04.06-.06.06-.08.06l-.17.12ZM220.86,160.48c.04-.1.08-.19.12-.23l.08-.19c.17-.1.08.39.15.48-.25.35-.02-.62-.23-.29l-.12.23ZM230.07,154.55l-.29.73c-.23.17.15-.62.29-.73ZM230.19,164.89l-.1.39-.25.08.35-.48ZM234.53,156.58s.06.25.12.35c-.25.31-.25,0-.12-.35ZM245.87,165.27l.23-.15.04.08-.27.06ZM268.84,165.39l.04-.08.23.15-.27-.06ZM280.35,157.12s.02-.41.12-.35c.12.37.12.64-.12.35ZM284.79,165.1l.35.48-.25-.08-.1-.39ZM284.91,154.73c.15.1.52.89.29.73l-.29-.73ZM293.76,160.75s-.04-.56.15-.48l.08.19s.06.12.12.23l-.12-.23c-.21-.31,0,.64-.23.29ZM295.05,159.94v-.04s.06.08.08.1l.08.06s.06-.04.17.12l-.17-.12s-.04,0-.08-.06l-.08-.06ZM296.04,161.14c.04.19.15.35.23.5-.25-.33-.64-.91-.87-1.64.41.68.31.37.77,1.18.12.06.04-.31-.08-.58.1.19.06-.23.31.23.15.62,0,.7-.33.29l-.02.02ZM295.61,151.87l.19.08.08.06-.27-.17v.02ZM296,159.87l.21.15c.1.19.29.64.17.58l-.37-.73h0ZM297.41,150.25l.19.6c-.15-.06-.06-.23-.19-.6ZM299.2,149.61c-.08-.25.02-.21.08-.29l-.08.29ZM303.99,148.78c.19.08.08.37.1.52-.15-.23-.19-.27-.1-.52ZM304.84,148.22l.27-.25c0,.27,0,.64.15.68-.23.85-.02-.6-.39-.41l-.02-.02ZM307.66,145.88s0,.06-.02.06v-.06c.02-.15-.06-.54-.12-.62-.25-.5-.21.27-.17.5l.15.12c.08,1.41-.52-.15-.75-.04l.27,1-.39-.81c0,.27.04.85.19.97-.08.52-.21-.33-.27.25,0,.08,0,.15.04.17l-.23-.27c.06.21.08.73.17.56-.21.62-.62-.68-.6.1l.04.06c-.48-.27-.17-.73-.64-1.56l.12,1.87-.17-.73s-.1.1-.04.39c-.25-.48-.04-.33-.21-.79-.08.7-.62-.21-.46.97-.19-.54.12-.48-.19-.83.19,1.29-.29-.17-.37.46.19.64.29.27.23.89-.33-1.08-.31.31-.52.12.02.12.06.29.08.48-.04.04-.19-.64-.27-.93.08.27.15.39.19.46-.19-.87-.41-.31-.75-.54.08.29-.39.58-.58.93l.04.15c-.23-.87-.46-.66-.68-.81.12.52.21.73.35.95l-.17.04s.06.21.1.31l-.15-.31h.04c-.1-.29-.19-.41-.33-.5l.19.64c-.23,0-.64-.66-.83-.17-.17-.6-.17-1.76-.58-2.11.06.33.19.91.31,1.02-.04-.04-.17-.25-.19-.1l.25.54c-.08.27-.19-.46-.27-.37.1.48,0,.35.1.73.04.04.04-.21.12-.04-.1.1-.19.44-.15.79,0,.1.04.19.04.25,0-.08-.04-.17-.04-.25-.06-.27-.15-.64-.25-.68-.23,0,.06.58,0,.87-.15-.31-.21.06-.37-.64-.06,0,0,.35.02.54-.19-.29-.58.04-.62-.75h0v-.08c-.58-.62-.7.58-1.16.39l.06.23c-.29-.21-.56-.02-.85-.5-.06,0-.04.48.06.75-.23-.12-.31-.39-.46.06.29.37.04.37.27.25-.17.27-.1.64-.54.08.25.58.04.81-.1.64l.04-.48c-.15-.06-.23.02-.33.1l.29.77c-.17,1.08-1.31-1.41-1.18.29-.29-.52.12-.46-.17-1.08-.19.17-.06,1.37-.12,1.39-.15.52-.62-1.06-.83-.68-.04-.29-.25-1.06-.56-1.24-.19.17.12,1.24.31,1.43.06,0,.06-.08.02-.19-.06-.04-.1-.08-.1-.15.04,0,.08.08.1.15.1.08.23.17.25.5l-.12-.27c0,.31-.31.37-.1.81-.25-.23-.21-.44-.15-.62-.15.48-.41.15-.6.5,0,.08,0,.12-.04.06,0-.02.02-.04.04-.06,0-.17-.08-.5-.12-.5-.29.48-.35-.48-.66-.52,0,.48.39,1,0,.73-.06.35.21.75.35.95-.44-.46-.33.52-.46.66l.21.19c-.12-.1-.19-.08-.25-.06l-.12-.58c-.04.12-.1.15-.02.37-.21-.33-.27-.93-.6-1.39,0,.31-.41-.19-.19.56.21-.33.23.58.48.75-.04,0-.08.02-.12.1,0,.08.06.15.1.19h0c.06.06.04.06,0,0-.06.77-.44-.79-.75-.66.19.39.21.81.12.75.12-.04-.19-.7-.41-.97-.08.39-.31-.17-.41-.08l-.04.1s.02-.1.04-.1l.06-.19c-.19-.39-.27-.31-.48-.39.1.33.21.17.21.33-.44-.66-.08.87-.48.46,0,.31.29.77.27,1-.46-.44-.04.66-.48.31-.15-.58-.08-.46-.46-.91l.58.23-.58-.7c.12-.06.39.25.44.12-.31-.39-.23-.27-.35-.75.15.89-.54-.35-.52.29l.54,1.35c-.06.73-.81-.5-1.08,0l.04-.29c-.27-.52-.27,0-.5-.15.19.46.19.64.25.95.02.06.04.15.08.29-.04-.12-.06-.21-.08-.29-.12-.33-.27.15-.68-.75l.06.66c-.21.35-.89-1.14-1.14-.85.29.46.29.83.64,1.1-.1.04-.15.17-.29-.15.06.31-.54-.5-.46-.02.04.06.08.08.08.06,0,.04,0,.06-.06.02v-.08c-.12-.19-.35-.64-.44-.56.02.1.1.23.1.23-.1-.23-.31-.23-.44-.77.29,1.53-.93.27-.66,1.58h.06l-.04.12s0-.08-.02-.15c-.29-.06-.62-.08-.83-.02.08.12.1.23.12.17-.08.54-.77-1.2-.87-.6.19.79.35.31.37.62.64,1.47-.48-.02-.27.91l.08.06c.08.56-.64-.37-.87-.15,0,0,.08.12.1.21-.54-.66-1-.75-1.35-.83.35.52.27.25.5.83-.15-.02-.44-.93-.73-.97.08.35.06.68.35,1.31l.23-.06c.29.85-.29.1-.33.29l.19.33c-.37.04-.83-.81-1.14-.58l-.1-.27c-.64-.77.1.56-.44,0l.39.89c-.23-.15-.87-.62-1.2-.66.48.58.91.77,1.26,1.08-.12.06-.46.15-.75-.25.1.06.27.25.25.08-.52-.6-.89-.83-1.14-.68.95,1.64-.39.75.15,2.14-.77-.39-.68.7-1.22.87-.58-1.37-.17.04-.89-1.29-.17,0-.19.02-.15.12v-.06.08c.12.25.77.81.79,1.26-.17-.62-.66-.54-.79-1.26h0l.12.97c.15.41.27.23.44.52-.19.25.23.6.27,1.06-.25-.48-.48-.62-.52-.35l-.17-.7c-.77-.5.37,1.26-.39.77l.35.35c-.33-.15-.64.37-1.45-.56.06.17.25.54.37.58-.31.41-1.62-.52-1.53.31l.23.29c-.15-.04-.52-.5-.41-.12.08.12.23.29.21.33-.1-.08-.56-.41-.54-.17l.31.29c-.12.64-1.18-.46-1.66-.44.62.89.52,1.39.46,1.64l.1.12c-.37.41-1.31-.23-1.97-.29.44,1.14-.6,1.02-.6,1.85-.06-.21-.52-.66-.66-.7.04.25-.73-.41-.1.37v-.04c.54.83.19.77.06.91l-.83-1.02c.77,1.8-1.51.23-.64,1.74-.31-.19-.41-.08-.73-.27l.46.54c-.15.35-.23.52-.66.64l.39.33c-.15.17-1.53-1.37-1.74-1.26l.62.85c-.33.25-.04,1.2-.97.75.1.1.31.33.39.33-.12.15-.1,1-1-.12.62.7-.25.35-.7.19l.5.5c-.75-.54-.91-.7-1.26-.73,0,.08.25.35.27.31,0,.25-.56-.39-.52,0l.37.27c-.12.19-.27,0-.73-.31-.29-.12-.19.39.23.87-.29-.27-.73-.56-.68-.33.15.19.29.27.35.29.06.58-.95-.23-.66.44.17.17.23.27.25.33.19-.21.33-.37.29-.39.44.46.35.7,1.1,1.22-.46-.23-1.43-.77-1.39-.41.04.04.06.1.12.19l.06.04s-.06.06-.17,0c.02.12.04.21,0,.27.35.39,0,.37-.04.48-.5-.5-.52-.33-.83-.83.02.04.08.04.15,0h-.06c-.04-.06-.06-.1-.08-.15-.35-.27-.73-.56-.91-.68.58.81.75,1.39,1.14,1.82-.54-.04-.77.37-1.87-.37-.19-.04.19.33.31.52.15.04.17,0,.33.1-.39-.1-.5.31-1.22-.27.12.46.73.48.37.62l.25.17c.62,1.47-2.51-.81-1.62,1.02-.06-.12-.08-.17-.19-.27,0,.31-.1.5-.27.66v-.19c-.17-.15-.29-.35-.27-.66-.1.1-.12.17-.19.27.89-1.8-2.24.46-1.62-1.02l.25-.17c-.35-.15.25-.17.37-.62-.7.6-.83.19-1.22.27.17-.1.19-.04.33-.1.12-.17.52-.56.31-.52-1.1.75-1.35.33-1.87.37.39-.46.56-1.04,1.14-1.82-.19.12-.56.41-.91.68,0,.04-.04.08-.08.15h-.06c.08.04.12.04.15,0-.31.5-.33.33-.83.83-.06-.1-.39-.08-.04-.48-.04-.06,0-.15,0-.27-.1.04-.19.06-.17,0l.06-.04s.1-.12.12-.19c.04-.37-.91.19-1.39.41.75-.52.66-.75,1.1-1.22-.04.02.08.21.29.39.04-.06.1-.17.25-.33.29-.66-.73.15-.66-.44.06-.04.21-.1.35-.29.02-.21-.41.08-.68.33.41-.48.52-1,.23-.87-.44.31-.6.5-.73.31l.37-.27c.06-.41-.52.25-.52,0,.04.04.27-.21.27-.31-.37,0-.54.19-1.26.73l.5-.5c-.46.17-1.33.52-.7-.19-.91,1.12-.87.27-1,.12.08,0,.29-.21.39-.33-.93.46-.64-.5-.97-.75l.62-.85c-.21-.1-1.6,1.45-1.74,1.26l.39-.33c-.44-.12-.5-.29-.66-.64l.46-.54c-.31.19-.41.08-.73.27.85-1.51-1.43.06-.64-1.74l-.83,1.02c-.15-.15-.5-.06.04-.91v.04c.64-.79-.12-.12-.08-.37-.15.04-.6.5-.66.7,0-.83-1.06-.7-.6-1.85-.66.04-1.6.68-1.97.29l.1-.12c-.06-.25-.17-.75.46-1.64-.48,0-1.53,1.08-1.66.44l.31-.29c0-.25-.44.08-.54.17-.02-.04.12-.21.21-.33.1-.37-.27.08-.41.12l.23-.29c.08-.83-1.22.1-1.53-.31.15-.04.31-.41.37-.58-.83.93-1.14.41-1.45.56l.35-.35c-.77.48.37-1.26-.39-.77l-.17.7c-.04-.25-.27-.12-.52.35.04-.44.46-.81.27-1.06.17-.29.29-.1.44-.52l.12-.97h0c-.12.73-.62.64-.79,1.29,0-.46.66-1.02.79-1.26v-.08.06s0-.12-.17-.12c-.75,1.33-.33-.08-.89,1.29-.54-.17-.46-1.26-1.22-.87.54-1.37-.81-.5.15-2.14-.23-.15-.62.08-1.14.68-.02.17.15-.02.25-.08-.29.39-.62.31-.75.25.35-.31.79-.5,1.26-1.08-.31.04-.95.52-1.2.66l.39-.89c-.52.54.21-.77-.44,0l-.1.27c-.31-.23-.77.62-1.14.58l.19-.33c-.04-.19-.62.54-.33-.29l.23.06c.29-.62.27-.97.35-1.31-.31.04-.58.95-.73.97.25-.6.15-.31.5-.83-.35.08-.81.17-1.35.83.04-.1.1-.21.1-.21-.21-.23-.95.7-.87.15l.08-.06c.19-.93-.91.56-.27-.91.02-.31.21.17.37-.62-.1-.6-.79,1.12-.87.6,0,.06.04-.02.12-.17-.21-.06-.54-.04-.83.02,0,.04,0,.08-.02.15l-.04-.12h.06c.27-1.31-.95-.04-.66-1.58-.12.54-.33.54-.44.77,0,0,.06-.12.1-.23-.1-.08-.31.37-.44.56v.08c-.06.04-.06,0-.06-.02,0,.04.04,0,.08-.06.08-.46-.52.33-.46.02-.12.31-.19.19-.29.15.35-.27.35-.64.64-1.1-.25-.27-.93,1.22-1.14.85l.06-.66c-.41.89-.56.41-.68.75,0,.08-.04.19-.08.29.02-.15.04-.23.08-.29.06-.31.04-.5.25-.95-.21.17-.23-.37-.5.15l.04.29c-.27-.5-1.02.73-1.08,0l.54-1.35c0-.64-.66.6-.52-.29-.1.48-.04.35-.35.75.04.12.31-.19.44-.12l-.58.7.58-.23c-.39.48-.33.33-.46.91-.41.35-.02-.77-.48-.31,0-.23.27-.68.27-1-.39.41-.06-1.12-.48-.46,0-.17.1,0,.21-.33-.19.08-.27,0-.48.39l.06.19s.04.04.04.1l-.04-.1s-.31.48-.41.08c-.23.27-.54.93-.41.97-.08.06-.06-.33.12-.75-.31-.12-.68,1.41-.75.66-.04.04-.06.04,0,0h0s.08-.1.1-.19c-.02-.08-.06-.12-.12-.1.25-.17.27-1.08.48-.75.23-.75-.19-.23-.19-.56-.33.44-.39,1.06-.6,1.39.08-.23,0-.25-.02-.37l-.12.58s-.12-.04-.25.06l.21-.19c-.1-.15,0-1.1-.46-.66.15-.21.44-.6.35-.95-.39.27,0-.25,0-.73-.31.04-.37.97-.66.52-.04,0-.1.33-.12.5,0,.02.02.04.04.06-.04.06-.04,0-.04-.06-.19-.35-.46,0-.6-.5.06.19.1.39-.15.62.21-.44-.08-.5-.1-.81l-.12.27c0-.33.15-.41.25-.5.02-.06.06-.15.1-.15,0,.06-.06.1-.1.15-.04.1-.04.19.02.19.21-.19.5-1.26.31-1.43-.31.19-.52.95-.56,1.24-.21-.39-.68,1.2-.83.68-.06-.02.06-1.22-.12-1.39-.31.6.12.56-.17,1.08.15-1.72-1,.77-1.18-.29l.29-.77s-.19-.17-.33-.1l.04.48c-.17.15-.37-.06-.1-.64-.41.58-.37.19-.54-.08.23.12-.02.1.27-.25-.15-.46-.23-.19-.46-.06.1-.27.12-.73.06-.75-.31.46-.56.27-.85.5l.06-.23c-.46.19-.6-1-1.16-.39v.1h0c-.06.77-.44.44-.62.73.02-.21.08-.54.02-.54-.19.7-.25.33-.37.64-.08-.27.23-.85,0-.87-.1.04-.21.41-.25.68,0,.08,0,.17-.04.25,0-.06,0-.15.04-.25.04-.37-.04-.68-.15-.79.08-.19.1.08.12.04.1-.37,0-.25.1-.73-.1-.08-.21.64-.27.37l.25-.54c-.02-.15-.15.06-.19.1.12-.12.23-.68.31-1.02-.41.33-.41,1.49-.58,2.11-.19-.5-.6.19-.83.17l.19-.64c-.12.08-.23.21-.33.48h.04l-.15.31c.04-.12.08-.23.1-.31l-.17-.04c.15-.21.23-.41.35-.95-.23.15-.44-.06-.68.81l.04-.15c-.19-.37-.66-.64-.58-.93-.33.25-.56-.33-.75.54.04-.04.1-.17.19-.46-.08.29-.23.97-.27.93.02-.21.04-.35.08-.48-.21.19-.19-1.2-.52-.12-.08-.62.04-.25.23-.89-.08-.62-.56.83-.37-.46-.29.35,0,.27-.19.83.17-1.18-.37-.27-.46-.97-.19.46.04.31-.21.79.06-.29,0-.37-.04-.39l-.17.73.12-1.87c-.48.83-.17,1.29-.64,1.56l.04-.06c0-.79-.39.54-.6-.1.08.17.1-.35.17-.56l-.23.27s.04-.08.04-.17c-.06-.58-.19.29-.27-.25.15-.12.21-.7.19-.97l-.39.81.27-1c-.23-.12-.85,1.45-.75.04l.15-.12c.02-.25.06-1-.17-.5-.06.08-.15.48-.15.62v.06-.06l-.06-.19c.17-.64.5-.79.73-.95-.1.27-.29.46-.31.87.21-.19.44-.6.64-.81.04-.1.08-.17.12-.21,0,.04,0,.08-.02.12,0,0,.04-.02.06-.02.02-.02.04-.02.08,0h-.08s-.06.12-.1.29c0-.06,0-.17.04-.25-.02,0-.06.04-.08.08-.1.25-.23.66-.29.93.12.37.21-.44.35-.48,0,.27,0,.46-.06.66.23-.25.37-.29.5.08,0,0-.29.46-.23.85.39-.35.6-1.14,1.06-1.53.62-1.06.7.83,1.14.06.06-.29-.12-.56.1-.7-.15.58.04.39,0,.64.37-.83.27.25.54-.31-.08.21,0,.46.04.66,0-.08.04-.17.08-.29l-.08.29h0c-.17.73.17.33-.33,1.33.52-1.04.48.37,1.06-1.26l-.04-.23.25.39h0s-.08-.15-.12-.29l.12.27c.1.15.17-.04.19.75-.12.17-.23.15-.33.31.02.68.46-.48.64-.48-.12.54-.23.15-.31.81.1.1.31-.25.46-.39l-.08.29c.17.73.44-1.41.46-.39.02-.17.1-.35.12-.54.02.33.1.89-.17,1.22.1.02.29-.21.41-.52,0-.46-.06-.25,0-.81l.52-.21s-.1.27-.17.27c.17,1.68,1.39-1.06,1.53.93.04-.5.15-.41.29-.73.17.19.48.15.58.48l-.15.31c.56-.29,1.02-.73,1.26-.44.06-.15-.12.48-.21.54.37-.54.15,1.43.54.17l-.06-.12c.37.33,1.12-.46,1.64-.5-.1.79-.29,0-.46.93.23.37.73-.17,1,.17-.08.08-.1.17-.15.21.19.58.19-.77.44-.56-.12.37-.15.46-.1.68l.27-.58s-.17.56-.25.73c.37-.75.58-.1.91-.81-.04.19-.31.87-.37,1.16.08.27.27,0,.46-.25.12-.37.17-.35.23-.27.08-.08.17-.08.19.06-.08.08-.15,0-.19-.06-.06.06-.15.17-.23.27h0c-.06.56.23.56.15.62.19.33.17-.39.52-.79l-.1-.39.44-.04-.27.31c.08.33.48-.25.66-.17l.04-.46.33-.19c-.27.89.23.29-.23,1.26.29.56.95-.48,1.37-.41-.06-.02-.1.17-.17.29.17.27.46-.12.75-.54-.12.27-.21.33-.29.56.27.1.33-.44.73-.6-.21.33-.25.54-.21.64.1-.33.25-.52.33-.6-.85,1.66.08.81-.56,2.14.15-.35.89-.95,1-1.7l-.12.1c.17-.48.21-.25.31-.25.1-.08.17-.12.04,0h-.04c-.08.06-.17.17-.19.25.64-.41.89.25,1.53,0-.1.17-.41.39-.35.58.37.44,1-.35,1.64-.6-.41,1.1-.58-.04-1,1,.6-.06,1.26-.25,2.05-.58-.46,1.66.81-.44.64.95.19-.54.46-.66.64-.6h.02c.08.04.17.1.21.21l-.21-.21h-.02c-.25.39-.06.5-.25.79.37-.41.93-.41.46.6.48-.97.33.19.77-.46,0-.1,0-.25.06-.5l.04.35s-.06.1-.1.15c.04.46.54-.02.66.37.19-.62.35-.25.56-.35-.04.04-.1.08-.12.15-.17.58.52-.33.52.04-.04.25-.29.56-.21.66.21-.44.83-.77.73-.17-.06-.04-.17.19-.29.33,1.04-.44,1.33.79,2.45.25l-.5.66c-.06,1.14.89-1.06,1.18-.79.37.41.66,1,1,1.47.33.48.7.87,1.29.87.19-.17.1-.27.27-.58.02.12-.29.75.02.41l.19-.39c-.19,1.24,1.6-.08.93,1.72.75-.39.37.81,1.39.17-.06.41-.56.56-.44.77l.79-.35-.06.04c1.12-.89.27,1.91,1.29,1.41l-.06.04c-.19.25-.27.62-.15.58.15-.17.15-.29.25-.54.73-.15.85-.1,1.26.02-.41.29-.08.41-.41.95.33-.29.31-.58.7-.73.33.15.29.77.39,1.12.41-.39.46-.19.87-.75.35.19.7.06,1.1.35l-.12.21c.62-.64.08.6.46.25-.19.25-.31.31-.44.52l.35-.1c-.25.15-.77.79-.68.97.52-.39.21-.37.58-.73l-.44.68c.17,0,.75-.7.75-1,.39.29,1.02.25,1.29.6l-.35.39c.31,0,.58.19.39.64.1-.12.31-.31.39-.48.62-.37-.35.56.08.35-.12.06-.25.12-.39.31l.87-.17c-.23.31-.5,1.22-.08,1.08.15-.17.27-.44.25-.52h-.1s.08-.02.1,0l.25-.06-.48.79.68-.5.1-.15v.04l-.1.08-.48.6c.23,0,.89-.75.97-.6.08.68-.15.83-.33,1.62.97-1.1.41.39,1.16-.35-.33,1.14.62,1.08.91,1.72l-.12.06c-.25.68.97-.64,1-.23l-.21.12c-.25.83.73.73,1.41.5-.21.1-.5.48-.37.52.27-.15.62-.81.6-.48-.12.06-.33.33-.29.37l.64-.41c.04.73.12,1.49.81,1.56-.1.25-.35.39-.54.56.37.15.97.06,1.37.17h0v.19h0c.39-.1,1,0,1.37-.17-.19-.17-.44-.31-.54-.56.68-.06.77-.85.81-1.56l.64.41s-.17-.29-.29-.37c-.04-.33.33.33.6.48.12-.04-.17-.41-.37-.52.68.23,1.66.33,1.41-.5l-.21-.12c.02-.41,1.24.91,1,.23l-.12-.06c.27-.64,1.24-.56.91-1.72.75.75.19-.75,1.16.35-.19-.79-.44-.91-.33-1.62.06-.15.75.58.97.6l-.48-.6-.12-.08v-.04l.12.15.68.5-.48-.79.25.06s.04-.02.1.02h-.1s.1.31.25.48c.41.12.15-.77-.08-1.08l.87.17c-.15-.19-.27-.23-.39-.31.44.21-.54-.7.08-.35.08.17.29.35.39.48-.17-.46.08-.64.39-.64l-.35-.39c.27-.35.91-.33,1.29-.6,0,.29.58,1.02.75,1l-.44-.68c.37.35.06.33.58.73.08-.19-.44-.81-.68-.97l.35.1c-.12-.21-.25-.27-.44-.52.37.35-.17-.87.46-.25l-.12-.21c.39-.29.75-.17,1.1-.35.41.56.46.35.87.75.1-.33.06-.97.39-1.12.39.15.39.46.7.73-.33-.54,0-.68-.41-.95.41-.15.52-.19,1.26-.02.1.25.1.37.25.54.15.04.04-.33-.15-.58l-.06-.04c1.02.5.17-2.3,1.29-1.41l-.06-.04.79.35c.15-.21-.37-.33-.44-.77,1.02.64.64-.56,1.39-.17-.66-1.78,1.12-.46.93-1.72l.19.39c.31.31,0-.29.02-.41.17.31.08.41.27.58.58,0,.95-.39,1.29-.87.33-.48.62-1.06,1-1.47.29-.27,1.24,1.93,1.18.79l-.5-.66c1.12.52,1.41-.68,2.45-.25-.12-.15-.23-.37-.29-.33-.1-.6.52-.27.73.17.08-.1-.17-.41-.21-.66,0-.37.68.52.52-.04,0-.06-.06-.12-.12-.15.19.1.37-.25.56.35.12-.41.62.06.66-.37-.04-.04-.06-.08-.1-.15l.04-.35c.06.25.06.39.06.5.46.64.29-.52.77.46-.48-1.02.08-1.02.46-.6-.19-.29,0-.37-.25-.79h-.02l-.21.21s.12-.17.21-.21h.02c.19-.06.46.06.64.6-.19-1.37,1.1.7.64-.95.79.35,1.45.52,2.05.58-.44-1.04-.6.1-1-1,.64.25,1.26,1.04,1.64.6.06-.19-.25-.44-.35-.58.64.25.89-.44,1.53,0-.04-.1-.12-.19-.19-.25h-.04c-.12-.1-.06-.06.04,0,.1,0,.15-.23.31.25l-.12-.1c.12.73.85,1.33,1,1.7-.64-1.33.29-.48-.56-2.14.08.06.23.27.33.6.04-.12,0-.31-.21-.64.39.17.48.7.73.6-.08-.23-.17-.31-.29-.56.29.39.6.81.75.54-.06-.15-.1-.33-.17-.29.41-.06,1.08.97,1.37.41-.46-.97.04-.37-.23-1.26l.33.19.04.46c.21-.08.58.5.66.17l-.27-.31.44.04-.1.39c.35.39.33,1.12.52.79-.08-.08.21-.06.15-.62h0c-.08-.1-.17-.21-.23-.27-.04.06-.1.15-.19.06.04-.15.1-.15.19-.06.06-.08.1-.1.23.27.19.25.37.52.46.25-.04-.29-.33-.97-.37-1.16.33.7.54.06.91.81-.1-.17-.25-.64-.25-.73l.27.58c.04-.23.02-.31-.1-.68.25-.19.25,1.14.44.56-.04-.04-.06-.15-.15-.21.27-.35.77.21,1-.17-.17-.91-.33-.15-.46-.93.5.04,1.24.83,1.64.5l-.06.12c.39,1.24.17-.7.54-.17-.08-.08-.25-.68-.21-.54.25-.29.7.15,1.26.44l-.15-.31c.1-.33.44-.27.58-.48.15.31.23.23.29.73.15-1.99,1.37.75,1.53-.93-.06,0-.21-.25-.17-.27l.52.21c.08.56,0,.35,0,.81.12.31.31.54.41.52-.29-.33-.19-.89-.17-1.22.02.17.1.35.12.54.02-1.04.29,1.12.46.39l-.08-.29c.15.12.35.5.46.39-.08-.66-.19-.27-.31-.81.19,0,.62,1.16.64.48-.12-.17-.23-.15-.33-.31.02-.79.08-.6.19-.75l.12-.27c-.04.15-.08.23-.12.27h0l.25-.37-.04.23c.58,1.64.54.23,1.06,1.26-.5-1-.17-.6-.33-1.33h0l-.08-.29c.04.12.06.21.08.29.04-.23.12-.48.04-.66.27.56.17-.52.54.31-.04-.23.15-.06,0-.64.23.15.04.41.1.7.44.75.52-1.12,1.14-.06.46.39.64,1.18,1.06,1.53.04-.39-.23-.85-.23-.85.12-.37.27-.33.5-.08-.06-.21-.06-.37-.06-.66.15.04.23.85.35.48-.08-.27-.19-.68-.29-.93-.04-.02-.06-.06-.08-.08.02.1.04.19.04.25-.04-.17-.06-.25-.1-.29h-.08s.06-.02.08,0c.02,0,.04,0,.06.02,0-.04,0-.08-.02-.12.04.04.08.1.12.21.21.19.44.6.64.81,0-.41-.21-.62-.31-.87.23.17.56.29.73.95l-.06.19.06.02ZM308.05,145.84c0,.19.06.39.08.54-.17-.37-.39-1.04-.44-1.78.23.77.21.44.46,1.33.1.08.12-.29.06-.58.06.21.12-.21.25.29-.04.64-.19.68-.41.21h0ZM308.55,145.38l-.19-.79.19.19c.06.21.1.68,0,.6Z" style="fill: #231f20;"/>
  <path d="M290.4,195.43c.17-.06.31-.12.15-.19h-.1s-.02.1-.04.19Z" style="fill: #231f20;"/>
  <path d="M292.04,195.85s.15.06.25.1c0-.04-.02-.08-.02-.12-.12,0-.23,0-.23.04v-.02Z" style="fill: #231f20;"/>
  <path d="M290.09,195.39s.02-.04.04-.08h.04-.17c-.06.04,0,.06.08.06v.02Z" style="fill: #231f20;"/>
  <path d="M290.43,195.27h.02v-.02s0,.02-.04.02h.02Z" style="fill: #231f20;"/>
  <path d="M421.34,234.43c-7.75-8.21-18.64-12.77-30.62-12.79h-.19c-24.18,0-38.05,13.93-50.2,29.42-2.88,3.36-8.44,7.9-15.59,4.04-4.21-2.24-5.7-7.34-3.36-11.32,1.76-2.96,5.74-4.04,8.89-2.36,1.1.58,1.89,1.53,2.26,2.7.33,1.16.19,2.36-.44,3.4-.41.7-1.12,1.16-1.87,1.39-.31-1.6-1.89-2.72-3.59-2.47-1.76.25-2.96,1.8-2.7,3.46,0,.17.21.25.25.39-.21.95.08,1.97,1.04,2.47,3.96,2.09,8.98.77,11.22-2.96,1.26-2.14,1.58-4.62.89-6.97-.66-2.36-2.28-4.31-4.56-5.52-5.54-2.94-12.54-1.08-15.61,4.15-3.71,6.24-1.37,14.18,5.22,17.71,2.59,1.37,5.25,2.05,7.88,2.05.87,0,1.72-.19,2.57-.33-2.47,3.3-4.93,6.59-7.51,9.64-5.68,6.8-10.57,12.48-15.32,16.82-.56.04-1.1.17-1.51.56-9.91,8.77-20.22,9.95-28.99,3.34-6.82-5.16-8-14.64-2.55-21.13,4.19-4.98,11.88-5.83,17.15-1.85,1.93,1.47,3.15,3.55,3.42,5.89.29,2.32-.41,4.62-1.95,6.45-1.04,1.26-2.57,2.03-4.25,2.32.21-.54.37-1.14.37-1.76,0-3.01-2.8-5.41-6.1-4.93-1.97.29-3.61,1.72-4.19,3.52-.48,1.51-.15,2.72.52,3.79,0,.66.27,1.31.87,1.74,2.47,1.87,5.54,2.72,8.71,2.36,3.13-.33,5.95-1.8,7.94-4.15,2.34-2.82,3.44-6.32,3.01-9.91-.41-3.57-2.28-6.78-5.22-9.02-7.38-5.58-18.2-4.42-24.09,2.59-7.05,8.42-5.64,20.65,3.09,27.47-3.86-1.76-7.24-4.33-9.83-7.78-4.27-5.64-5.97-12.77-4.67-19.57,1.02-5.25,4.08-9.79,8.71-12.83,4.6-3.03,10.18-4.21,15.74-3.26,1.43.21,2.84-.77,2.88-2.22.04-1.18-.93-2.22-2.18-2.43-6.74-1.12-13.6.31-19.26,4.04-2.51,1.66-4.62,3.75-6.34,6.07-.87,1.18-2.28,1.87-3.79,1.85h0c-1.45-.02-2.78-.7-3.61-1.8-5.64-7.59-15.55-11.88-25.73-10.12-1.35.23-2.26,1.43-2.01,2.72.23,1.26,1.51,2.07,2.88,1.89,11.36-1.95,22.37,5.27,24.42,16.09,1.29,6.82-.41,13.95-4.67,19.59-2.61,3.44-5.99,6.01-9.85,7.78,8.75-6.82,10.16-19.08,3.09-27.49-5.89-7.01-16.67-8.17-24.07-2.59-2.96,2.24-4.83,5.45-5.27,9.02-.41,3.57.62,7.07,3.01,9.89,4.06,4.85,11.55,5.66,16.67,1.8.6-.44.83-1.08.89-1.74.68-1.16,1.02-2.47.37-4.06-.7-1.72-2.32-3.07-4.27-3.28-3.17-.35-5.89,1.99-5.89,4.96,0,.6.17,1.18.37,1.74-1.62-.27-3.15-1.02-4.27-2.32-1.51-1.85-2.24-4.13-1.93-6.47.31-2.32,1.49-4.42,3.44-5.87,5.27-3.98,12.96-3.13,17.13,1.85,5.43,6.47,4.31,15.97-2.55,21.13-8.77,6.61-19.05,5.43-28.97-3.36-.44-.37-.97-.5-1.51-.54-4.75-4.37-9.66-10.06-15.32-16.84-2.57-3.05-5.04-6.34-7.53-9.64.85.15,1.7.33,2.57.33,2.61,0,5.29-.66,7.86-2.05,6.59-3.5,8.94-11.45,5.25-17.71-3.11-5.2-10.12-7.07-15.61-4.13-2.26,1.2-3.88,3.15-4.56,5.52-.68,2.36-.39,4.83.89,6.97,1.06,1.8,2.82,3.13,4.96,3.69,2.09.56,4.33.31,6.24-.7.95-.5,1.22-1.49,1.02-2.45.04-.17.21-.25.25-.41.23-1.68-.97-3.21-2.72-3.46-1.7-.25-3.28.87-3.57,2.49-.79-.25-1.47-.7-1.89-1.39-.62-1.04-.77-2.26-.41-3.42.33-1.16,1.12-2.11,2.24-2.7,3.11-1.66,7.15-.62,8.87,2.34,2.36,4,.89,9.08-3.36,11.34-7.11,3.79-12.61-.6-15.51-3.96-12.15-15.53-26.08-29.5-50.3-29.5h-.19c-11.98.04-22.85,4.58-30.6,12.79-8.54,9.08-12.59,21.83-11.07,35,1.12,9.91,6.28,18.78,14.47,25.03,7.05,5.39,15.65,8.23,24.55,8.23.31,0,.62-.04.95-.04.04,0,.08.06.15.06h.31c.15,0,.25-.06.37-.08.85-.04,1.7-.04,2.57-.15,17.52-1.8,30.23-16.79,28.32-33.42-1.56-13.54-14.37-23.37-28.76-21.89-1.35.15-2.34,1.29-2.18,2.57.17,1.29,1.22,2.24,2.72,2.07,11.53-1.22,22.02,6.76,23.28,17.75.97,8.33-2.49,16.09-8.44,21.42,2.45-4.87,3.21-10.76,1.87-16.82-1.14-5.16-4.33-9.56-8.98-12.44-4.46-2.74-9.74-3.75-14.95-2.88-3.84.64-7.44,2.47-10.01,5.25-3.65,3.98-5.06,9.12-3.92,14.1.77,3.5,2.96,6.53,6.12,8.48,3.17,1.97,6.97,2.67,10.72,1.91,3.11-.64,5.78-2.36,7.53-4.89,1.37-2.01,1.78-4.33,1.66-6.68,0-.08.06-.15.06-.25,0-.12-.06-.21-.08-.33-.04-.39.08-.79,0-1.18-.04-.17-.21-.23-.29-.39-.75-1.8-2.61-3.11-4.77-3.15-2.9-.04-5.29,2.16-5.33,4.91-.04,2.45,1.85,4.42,4.29,4.87-1.02,1.24-2.36,2.14-4,2.49-2.43.52-4.91.06-6.99-1.22-2.07-1.29-3.5-3.23-3.98-5.52-.83-3.79.29-7.67,3.3-10.57,1.72-1.66,4.02-2.76,6.45-3.19,4.04-.73,8.13.04,11.59,2.16,3.55,2.2,5.97,5.56,6.86,9.48,1.35,6.07.31,11.98-2.84,16.19-2.61,3.48-6.74,5.7-11.78,6.51-8.42.39-16.57-1.97-23.22-7.01-7.19-5.47-11.69-13.23-12.67-21.89-1.35-11.86,2.24-23.28,9.85-31.37,6.8-7.22,16.38-11.22,26.93-11.24h.17c21.6,0,34.56,12.73,45.86,27.1.02.02,0,.04.02.08.08.08.17.15.21.23,2.05,2.59,4.04,5.2,6.01,7.84.52.7,1.04,1.33,1.56,2.01-3.92-.7-7.88.06-11.57,2.38-6.3,3.98-8.02,12.05-3.86,18,2.2,3.13,5.85,4.83,9.56,4.83,2.18,0,4.37-.58,6.34-1.8,2.16-1.37,3.63-3.42,4.15-5.83.5-2.41,0-4.85-1.43-6.86-2.51-3.55-7.65-4.52-11.38-2.16-.77.5-1,1.31-.93,2.09-.08.23-.31.37-.33.6-.15,1.68,1.14,3.15,2.94,3.32,1.66.15,3.05-1,3.36-2.55.89.12,1.74.54,2.26,1.31.68.97.95,2.16.68,3.32-.23,1.16-.97,2.2-2.03,2.84-2.96,1.91-7.05,1.14-9.04-1.7-2.67-3.79-1.56-8.96,2.47-11.51,7.17-4.48,13.29.15,16.26,3.32h.04c.08.08.15.21.21.27,13.97,16.69,25.92,31.08,46.59,28.09,8.17-1.18,15.41-5.41,20.3-11.9.44-.6.83-1.22,1.2-1.87.68-1.18,1.95-1.95,3.38-1.99h.21c1.47-.04,2.82.7,3.52,1.93.39.66.81,1.31,1.26,1.93,4.89,6.47,12.11,10.72,20.28,11.88,20.55,3.01,32.61-11.42,46.57-28.09.1-.08.17-.19.21-.27h0c3.03-3.17,9.12-7.82,16.28-3.32,4.02,2.53,5.14,7.71,2.47,11.51-1.99,2.84-6.03,3.59-9.06,1.7-1.06-.66-1.78-1.66-2.01-2.84-.25-1.16,0-2.36.68-3.32.5-.7,1.22-1.16,2.07-1.33.08,0,.12.04.21.04.29,1.51,1.7,2.65,3.36,2.55,1.78-.15,3.09-1.62,2.94-3.32,0-.25-.25-.39-.33-.62.06-.81-.17-1.6-.93-2.09-1.85-1.16-4.02-1.56-6.18-1.16-2.18.41-4,1.6-5.22,3.32-1.43,2.03-1.91,4.48-1.43,6.86.52,2.41,1.97,4.48,4.13,5.83,1.95,1.22,4.17,1.8,6.37,1.8,3.71,0,7.36-1.7,9.56-4.83,4.19-5.97,2.47-14.04-3.86-18-3.69-2.32-7.63-3.09-11.55-2.38.52-.68,1.04-1.31,1.53-2.01,1.99-2.65,4-5.27,6.05-7.88.06-.06.12-.1.19-.19v-.06c11.32-14.37,24.26-27.12,45.88-27.12h.15c10.59.02,20.15,4.02,26.95,11.24,7.63,8.09,11.24,19.51,9.85,31.37-1,8.65-5.49,16.44-12.65,21.89-6.63,5.04-14.8,7.42-23.22,7.01-5.1-.83-9.19-3.03-11.8-6.53-3.15-4.21-4.19-10.1-2.82-16.19.87-3.92,3.32-7.3,6.86-9.48,3.55-2.2,7.78-2.94,11.94-2.09,3.17.64,5.93,2.43,7.69,5.02,1.78,2.59,2.38,5.68,1.7,8.69-.5,2.28-1.91,4.25-3.98,5.52-2.07,1.29-4.56,1.72-6.99,1.22-1.64-.33-3.03-1.24-4-2.49,2.45-.46,4.31-2.41,4.29-4.87-.04-2.76-2.43-4.96-5.33-4.91-2.22.02-4.02,1.31-4.79,3.13-.08.17-.25.23-.29.39-.1.39.02.77,0,1.16,0,.12-.08.21-.08.33,0,.08.06.17.06.23-.15,2.34.31,4.69,1.68,6.7,1.74,2.53,4.4,4.23,7.51,4.87,3.71.75,7.53.08,10.7-1.91,3.17-1.95,5.35-4.98,6.12-8.46.95-4.23.1-8.58-2.38-12.21-2.49-3.63-6.32-6.14-10.82-7.03-5.43-1.1-10.99-.1-15.63,2.76-4.67,2.86-7.86,7.28-9,12.44-1.37,6.05-.6,11.98,1.89,16.86-.95-.83-1.87-1.64-2.7-2.61-4.52-5.33-6.59-12.03-5.81-18.85,1.29-10.97,11.76-18.99,23.3-17.75,1.45.15,2.59-.79,2.7-2.07.17-1.29-.83-2.43-2.2-2.57-14.35-1.53-27.2,8.36-28.74,21.89-.93,8.04,1.49,15.97,6.84,22.27,5.37,6.3,12.96,10.26,21.48,11.13.85.08,1.72.08,2.57.12.15.02.23.06.37.08h.31c.06,0,.1-.04.15-.06.31,0,.62.06.95.06,8.92,0,17.52-2.86,24.57-8.23,8.21-6.24,13.35-15.16,14.47-25.05,1.49-13.15-2.55-25.9-11.09-34.96l-.06.1Z" style="fill: #231f20;"/>
  <g>
    <path d="M412.24,218.55s-1.43.75-3.63,1.45c-1.95.62-3.28-.06-1.82-.56,2.11-.73,4.98-2.43,4.96-2.55-.27-2.51-.29-7.65,3.19-10.82,4.73-4.31,11.36-1.08,14.76-5.62,4.56,7.92,1.51,16.73-3.63,19.78-4.91,2.92-10.24.52-12.59-.87,0,0,9.93-5.6,10.97-8.56-3.65,3.38-12.21,7.73-12.21,7.73v.02Z" style="fill: #231f20;"/>
    <path d="M90.55,210.82c1.04,2.96,10.97,8.56,10.97,8.56-2.34,1.39-7.67,3.79-12.59.87-5.16-3.07-8.21-11.88-3.63-19.78,3.4,4.54,10.01,1.31,14.76,5.62,3.48,3.17,3.44,8.31,3.19,10.82,0,.12,2.84,1.85,4.96,2.55,1.45.5.12,1.18-1.82.56-2.2-.68-3.63-1.45-3.63-1.45,0,0-8.56-4.35-12.21-7.73v-.02Z" style="fill: #231f20;"/>
  </g>
  <g>
    <g>
      <path d="M79.73,294.27c-1.41-3.28-3.77-6.51-7.11-7.9-.37-.17-.81-.27-1.24-.37-.89,1.33-1.91,2.38-3.09,3.28-1.02.75-2.09,1.35-3.19,1.8.31.23.64.41,1,.6,1.39.73,2.88,1.37,4.33,2.05-1.37-.37-2.94-.52-4.25-1-.81-.29-1.58-.7-2.28-1.2-2.09.7-4.29,1.06-6.49,1.33,1.78,2.94,5.56,5.31,8.42,6.39,2.99,1.12,6.34,1.26,9.66,1.6,2.03.21,4.23.97,5.85,1.85.37.21.77-.12.62-.54-.79-2.55-1.2-5.41-2.24-7.86l.02-.02Z" style="fill: #231f20;"/>
      <path d="M43.3,293.25c3.73-2.03,8.02-2.28,12.23-2.76,2.05-.23,4.08-.54,6.01-1.12.41-.12.83-.27,1.24-.44,1.22-.46,2.41-1.08,3.5-1.89,1.04-.77,1.89-1.68,2.61-2.67,1.14-1.6,1.95-3.44,2.59-5.35,1.2-3.46,1.74-7.15,1.64-10.8-.04-1.49-.06-3.03-.44-4.48-.08-.31-.17-.73-.41-.95-.33-.31-.91,0-.77.46.93,3.21.35,6.95-.95,10.01-1.49,3.52-4.37,5.62-7.9,6.88-.93.33-1.89.64-2.86.91h-.06c-.19,0-.27-.29-.08-.37,1.14-.52,2.28-1.04,3.36-1.6,5.31-2.76,7.61-9.21,5.64-9.21-.17,0-.35.04-.56.12-3.07,1.26-6.72,1.29-10.08,1.91-1.18.21-2.34.52-3.42.95-4.29,1.8-7.38,5.31-9.21,9.52-1.37,3.15-1.89,6.86-2.92,10.14-.12.41.17.79.52.79.08,0,.19,0,.29-.08l.02.02Z" style="fill: #231f20;"/>
    </g>
    <g>
      <path d="M433.01,302.13c-.12.41.27.75.62.54,1.62-.89,3.82-1.64,5.85-1.85,3.32-.35,6.7-.48,9.66-1.6,2.86-1.08,6.63-3.44,8.42-6.39-2.2-.27-4.37-.6-6.49-1.33-.7.5-1.45.91-2.28,1.2-1.31.48-2.88.62-4.25,1,1.45-.68,2.96-1.33,4.33-2.05.35-.19.68-.37,1-.6-1.1-.46-2.18-1.06-3.19-1.8-1.18-.87-2.2-1.95-3.09-3.28-.44.1-.87.21-1.24.37-3.32,1.39-5.7,4.62-7.11,7.9-1.06,2.45-1.45,5.31-2.24,7.86l.02.02Z" style="fill: #231f20;"/>
      <path d="M471.97,293.32c.37,0,.66-.35.52-.79-1.04-3.28-1.56-6.99-2.92-10.14-1.82-4.23-4.89-7.73-9.21-9.52-1.08-.46-2.24-.75-3.42-.95-3.38-.62-7.01-.64-10.08-1.91-.21-.08-.41-.12-.56-.12-1.99,0,.33,6.45,5.64,9.21,1.08.56,2.22,1.08,3.36,1.6.21.08.12.37-.08.37h-.06c-.97-.29-1.93-.58-2.86-.91-3.52-1.29-6.41-3.38-7.9-6.88-1.31-3.07-1.89-6.8-.95-10.01.12-.46-.46-.77-.77-.46-.25.23-.33.64-.41.95-.37,1.45-.39,2.99-.44,4.48-.1,3.67.44,7.34,1.64,10.8.66,1.91,1.45,3.75,2.59,5.35.73,1,1.58,1.91,2.61,2.67,1.12.81,2.28,1.43,3.5,1.89.41.17.83.29,1.24.44,1.93.58,3.96.87,6.01,1.12,4.21.48,8.48.73,12.23,2.76.1.06.21.08.29.08l.02-.02Z" style="fill: #231f20;"/>
    </g>
  </g>
  <g>
    <path d="M86.11,355.83l-.54.31-.62.35-.91.21-1.76.5c-.5.1-1.02.17-1.58.17h-.87c-.54-.66-.87-1-.97-1.02l-1.26-.62-.6-.39-.33-.29c-.44-.44-.64-.64-.64-.66l-.23-1.14-.93-.29-.81-.97-.97-.31-.56-.64-.39-.1-.35-.31-.81-.54-.48-.44-.68-.31-.87-.83-.52-.41c.08-.17.12-.31.12-.44,0-.31-.15-.5-.41-.54l-1.2-.21-.35-.33-1.43-.87-.68-.87-.87-.35-.73-.54-.64-.21-1.58-.97-.5-.12-.17.52-.25.5-.04.93c.23.1.35.25.35.39s0,.25-.04.31l-.21.48-.1,1.16-.1.91.1.56-.21.5.35.5-.04.39-.15,1.06.04.66.52,3.26v.12c0,.25-.1.46-.33.62l-.5.35-.41.31h-.85c-.29,0-.54.1-.77.29l-1.31.87s-.23.08-.48.08c-.33,0-.5-.08-.5-.25,0-.1.21-.5.6-1.2.19-.25.27-.6.27-1.02l.04-1.37.29-.68-.15-1.49.25-.35.39.04c.21,0,.35-.06.44-.17.08-.1.12-.33.12-.64l-.35-.27c-.37-.23-.56-.5-.56-.79l.15-.79-.25-.25-.04-.66.04-.91.21-1.53-.21-1.95.15-.93-.29-.52c.04-.19.35-.35.91-.5v-.75c-.23-.25-.46-.35-.66-.35l-.04-.89-.1-1.56.15-.79c-.21-.31-.35-.6-.44-.83-.08-.23-.1-.56-.1-.97v-.89l-.17-.12.17-1.49c0-.39-.17-.77-.48-1.14l-.97-.46.1-.54.52-.12.35-.12c1.06-.35,2.09-.54,3.15-.58l1.78-.08.77-.08c.33.25.58.37.75.37h.04l2.49-.37.54.27h.1s.06,0,.08.02l.62-.04,1.74.04h3.48l2.61.35,1.68.08,1.37.58,1.53.35c.56.12,1,.39,1.26.77.29.37.44.83.44,1.37,0,.48-.15,1.06-.44,1.72l-.87-.12c.04.33.21.56.44.68l-.25.46-.54.44-.33.33s-.33.08-.79.08c-.06.08-.1.17-.1.29l.21.33-.33.31-.54.25-1.12,1.04-.81.25-.81.44-.5.04c-.15.35-.39.6-.73.75l-.6.21-.77.23h-.62l-1.2.31-.35.04h-.21l-.73.46c-.15-.08-.29-.12-.39-.12s-.23.02-.33.08c-.04.06-.04.1-.04.17,0,.12.12.27.37.44l-.17.33c-.33.23-.5.39-.5.52,0,0,.04.08.1.23h.52c.21-.17.44-.27.75-.29l.52.46-.25.17c.04.41.21.62.5.62l.5-.04.52.52,1.41,1.29.97.7,1.06,1.02-.15.52,1.06.46c.12.25.23.41.31.48s.33.21.75.48l1.12.97.77.7.39.35v.27c0,.25.08.48.25.64l1.02.27.48.29.87.66,2.53,1.26.52.41h.15s.04,0,.06.02l1.56-.21h.04c.23,0,.56.15.97.44l.04.02ZM75.17,333.87c0-.58-.21-1-.62-1.24l-.79-.5-.87-.52-.81-.04-1.16-.33-.25-.04h-.41l-.29-.56-.66-.08-.35.48-3.48-.25-.33.21-.39-.04-3.44.31h-.52l-.39.37c-.35,0-.58.1-.73.33-.12.23-.21.68-.21,1.39l.04,1.31.04.87v.54c-.48.31-.73.56-.73.79,0,.31.31.54.91.66l.21.44-.1.66v.58l-.21.93c.04.31.39.6,1.06.83l-.04.17,2.22-.04.33.25.44-.08.81-.08,1.62-.5.56.19.54-.23,2.22-.64.81-.46,1.68-.58,1.2-1.62,1.37-1.2.1-.66.48-1.02.1-.56.06-.02Z" style="fill: #231f20;"/>
    <path d="M121.32,354.25l-.33.87-.54-.04c-.21,0-.33.04-.41.12l-.5.87-.66.37-.21.21-.91-.08-1.06.41h-.04l-1.2-.31-.15-.04-2.8.08-.79-.08-.27-.31c-1.02.17-1.58.25-1.7.25l-.91-.04-.62.08-.21-.39h-.29l-.25.04-.87.35-4.87.04-.73.29c-.54-.29-.97-.44-1.26-.44l-.25.04-1.26.29-1.43-.25-4.35.12c-.15,0-.77-.17-1.85-.48l.25-.46.6-1.14.1-1.08.27-.97v-1.51l.15-.58-.1-4.64.1-1.18-.04-.44-.15-.46,1.02-.04c-.19-.31-.33-.54-.48-.68-.12-.12-.37-.29-.68-.5l-.12-.33.12-1.49-.23-2.55.23-.97.1-.39-.52-.12-.21-.41-.1-1.31-.29-.41-.04-.21.04-.5.21-.25,1.37.29-.39-.29c-.25-.15-.37-.29-.37-.39,0-.06.04-.19.1-.33l-.39-.12-.5.12c-.04-.66-.1-1.1-.17-1.31-.06-.21-.17-.33-.31-.37l-.97-.31.25-.41c.12-.1.39-.23.81-.35l.48-.12c.81-.31,1.43-.46,1.85-.46h.04s.04,0,.08.04l3.63.5,1.68.12.93.25c.6-.19,1.02-.29,1.24-.29.1,0,.17,0,.21.04l3.73.31,3.3-.17,1.29.31.75-.15v-.25c1.14-.08,1.97-.21,2.49-.35.73-.23,1.16-.33,1.31-.33l.5.08c-.08.31-.19.52-.31.64s-.39.27-.81.44c-.04.25-.08.41-.17.5-.08.1-.33.23-.73.39-.85.31-1.58.48-2.14.48h-.27l-1.31-.08-1.12.12-2.28-.21-.52-.04c-.46-.25-.91-.35-1.37-.35-.35.31-1,.48-1.93.48l-.75-.04-.12-.35-.5.12-.73.25-3.38-.25-.54.66.21.17v.17l.1,1.06-.21,1.56.1.58.04.44.5.12,3.38.27c.23,0,.56.12,1.02.39l.77-.12c.46-.12.81-.21,1.02-.21h.04l2.65.12,1.56.04h1.41c.29,0,.54,0,.75-.06.21-.04.44-.1.68-.23l1.89.29.44-.08,1.06-.21,1.93-.04,2.03-.23c.23.06.46.15.68.31l.52-.27c.33-.21.64-.31.91-.31l.54.04.56-.04v.62l-.66.35-1.51,1.06c-.19.12-.35.19-.52.19h-.1l-1.66-.19-2.14.06-1.16-.23-4.15.23-.77-.06c-.19-.27-.39-.39-.62-.39-.12,0-.23,0-.29.04l-1.12.35-3.23-.29-1.58.46-1.12-.27-.91.46-2.72-.17-.21.29.1,1.06-.41,1.08.23.31.35.35-.35.87c.25.37.39.64.44.83l-.1.66.21,1.85v.04c0,.17-.19.46-.54.83.44.44.64.81.64,1.08,0,.08-.04.17-.1.29l-.66,1.14.73,1.02.29,3.84.77.12,3.34.93,1.12-.12c.27,0,.64.1,1.12.31.33-.25.56-.35.73-.35h.1l2.28.35,1.39-.12,1.2.21,2.94-.17.85.12,1.43.04.5.15-.15-.31.56-.08,2.32-.04.5-.17,2.9-.41s.27-.04.56-.1.48-.08.54-.08c.1,0,.31.04.62.12v-.06Z" style="fill: #231f20;"/>
    <path d="M152.75,329.81c-.04.68-.25,1.18-.56,1.51l-1.06,1.18-1.06,1.64-.81.44-.85,1.8-.37.29-.54.66-.62.31c-.23.19-.35.35-.35.5v.52l-.66.83-.64.97-.41.27-1.02,1.58c-.12.25-.58.58-1.37,1.04l-.52.29.37.62-.37.39-.89.93-.52.75-.39.29-.04.79c-.04.39-.1.68-.19.85-.08.17-.31.35-.62.6.08.27.17.46.27.56.1.1.29.23.54.33l-.15,2.01-.33-.08-.35.23.15,1.06.39.04.12,1.85-.52.12v.33c.48.29.73.54.73.79,0,.04-.04.17-.15.35h-1.02l-.56.12c-.31.06-.75.17-1.26.29-.52.12-.89.21-1.06.21-.35,0-.66-.17-.97-.5l.1-.48.29-1.49.17-.97v-.15l-.12-1.51s.12-.29.37-.58l.15-.31-.15-.12-.62-.06.1-.48.41-.46.1-.44-.04-.79.04-.62h.39c0-.29-.02-.48-.08-.6-.06-.1-.19-.25-.41-.39l.29-.17-.25-.46-1.2-.79-1.12-1.14c-.29-.12-.62-.21-.97-.25,0-.58-.1-.95-.33-1.12l-1.76-1.31-.04-1.14c0-.17-.08-.31-.23-.44-.17-.12-.31-.19-.48-.19-.04,0-.25.02-.62.08,0-.35-.08-.6-.23-.75-.12-.15-.44-.31-.93-.52l-.35.12-.66-.62-2.14-1.8-.81-.89-.44-.41c.48-.04.73-.17.73-.39,0-.12-.06-.25-.21-.35s-.31-.15-.5-.15c-.04,0-.25.02-.62.08-1.04-1.08-1.56-1.91-1.56-2.55,0-.25.08-.5.23-.75s.31-.41.5-.48l1.51-.58,1.2-.52.33-.04.35.08.39-.04.27.25-.37.91.1.31v.33l1.02.93.1.39-.04.7.81.54-.21.6c-.1.21-.15.39-.15.54,0,.1.1.23.29.41l1.02-.15c.68,0,1.14.15,1.37.46l.73,1.02.5.66.17.39-.37.23c.37.46.7.68.97.68.06,0,.12-.02.17-.02h.25c.6.66,1.1,1.16,1.49,1.51.37.33.93.73,1.64,1.18l-.35.17c.21.41.5.7.91.91l.25-.21,1.43,1.14c.1.66.41.97.97.97.19,0,.39-.06.64-.21,0,0,.23-.15.62-.41l.5-.35,1.53-1.72.6-.54,1.31-1.93,1.29-1.41.39-1.02.56-.87.35-1.18,1.02-1.24.15-.39,1.26.12c0-.29-.08-.5-.21-.58s-.35-.17-.73-.21l.23-.39c.29-.58.56-.95.79-1.08l1.02-.52c1.06-.56,1.8-.87,2.28-.91,0,0,.1.02.37.08l-.06.02Z" style="fill: #231f20;"/>
    <path d="M199.38,354.92c0,.39-.12.77-.35,1.1l-.48-.04-.35.04-.66.29-1.7-.21-1.68.48h-2.57l-3.19.31h-.17l-1.06-.08c-.87.35-1.66.54-2.32.54l-.5-.04-1.58-.17-3.59-.12-.97-.19-1.37-.21-.66-.12-.21-.5c-.31,0-.56-.08-.73-.25-.37.12-.6.21-.68.21-.19,0-.48-.1-.91-.31l-.52-.21c-.04-.35-.19-.66-.44-.91-.33.1-.56.17-.73.17-.1,0-.19-.02-.25-.08l-.25-.21-1.12-.87-.66-1.08-.62-.56-.68-.83-.37-.7c.25-.37.39-.75.41-1.1l-.27-.31-.89-.12-.41-.75c-.17-.21-.25-.39-.25-.56,0-.12,0-.25.04-.37v-.04l-.35-1.6c-.04-.1-.04-.29-.04-.52,0-.33.08-.7.25-1.08l-.29-.39.29-1.29c.04-.48.12-.85.21-1.12.08-.27.23-.52.44-.77-.04-.06-.04-.12-.04-.21,0-.1.1-.31.33-.62l.15-.44.97-.33-.04-.7c0-.17.04-.27.1-.31l1.26-1.31.62-.91.64-.46.66-.79,1.2-.75.39-.56,2.34-.79.79-.5.91-.12.33-.21.44-.27.5-.21c.89-.27,1.6-.44,2.14-.48l2.2-.04,1.06-.37,2.05-.17,1.29-.21,2.38.25h.77c.44.39.68.58.75.58.23,0,.46-.12.66-.37h.25l.1-.17.56.08,1.41.5.97.04c.41,0,.62.12.62.39,0,.21-.25.39-.73.54-.52.31-.89.48-1.12.48l-.44-.12c-.31.52-.64.79-1.02.79h-.23l-.97-.29-1.12-.25-.79-.46-1.16-.25-1.12-.33-2.9.19-1.68.04c-.93.04-1.66.17-2.14.39l-1.66.83-1.64.62-2.03,1.14-.87.31-.54.91c-.81.12-1.2.35-1.2.68,0,.17.06.33.21.5l-.48.48c-.21.29-.44.5-.75.62l.15.58-.25.48-.81,2.14-.29.62-.23.75.1.44v.41l-.15.35-.21-.08.1.31c-.39.21-.6.41-.6.58,0,.12.12.31.39.54l.77.21v.52c0,.21.04.39.15.58-.31.21-.48.41-.48.58,0,.08.04.17.12.25l.64-.21.25.39.52,1.37.54.79-.21.75.29.39h.27c.29,0,.54.08.73.23s.35.41.54.81l.21.41.25.21-.6.29.35.23.91-.19.66.37.5.25.56.41.97.29,1.7.87.87.25-.15.41c.6.06.97.1,1.16.17l.77.21,2.07.04.5.27.52-.19,1.85-.12,1.02-.12.52-.04c.23,0,.5.06.81.21l.5-.25c.52-.19.89-.29,1.12-.29h.04l.77.04.97-.12-.04-.23.44-.17c.44-.1.68-.19.79-.23.08-.04.25-.17.48-.35l.1.15c.58-.17.87-.37.87-.62l-.21-.62.04-1.56-.21-2.24.39-.7v-.17c0-.29-.19-.52-.54-.75l-.1-.41-.1-.75.1-.44-.52-.04-1.89-.12-1.26-.08-.5.04-1.06.08s-.25-.04-.52-.12l.15-.58c.23-.06.37-.1.44-.15s.19-.19.37-.44l.37-.31c.48.17.93.25,1.37.25h.39l5.85-.29.68.04c.37.5.56.91.56,1.18,0,.19-.17.35-.52.5v.35h.33l-.04.75.04.41c0,.21-.02.37-.08.48s-.19.21-.37.35l.27.97c.23.25.35.56.35.93s-.06.75-.21,1.1c-.37.02-.62.08-.75.19s-.17.33-.17.66l1.26.91-.04,1.29.04.35.06.19Z" style="fill: #231f20;"/>
    <path d="M238.94,330.47l-.04,1.22-.5,1.49.04.75-.1.56.29.93v.04c0,.25-.19.62-.56,1.12l-.35.52-.54.12.35.41c.37.41.62.7.75.85s.17.31.17.46l-.25,1.2v.66l-.33.08.21.21-.21.66v.08l.48,2.43-.15.48c-.41.15-.62.33-.62.54s.23.46.66.75l.04,1.72-.23.48c-.06.21-.1.31-.1.29,0,.15.1.37.33.68.17.29.25.56.25.83,0,.23-.12.5-.35.79.33.29.52.5.6.58l-.04,1.6.1,2.01v.27c-.41.06-.75.17-1.02.29s-.79.44-1.56.93l-.23.29-.44-.04-.97.62c-.17-.29-.25-.56-.25-.83,0-.48.12-.83.39-1.06h.37c0-.21-.06-.35-.15-.44-.08-.08-.27-.15-.56-.23l.04-2.01.21-.15-.15-.93c-.15-.08-.29-.12-.39-.12h-.1s-.1,0-.17.02l-.25.23h-.39c-.21,0-.37.04-.48.12l-.6.31-1.02.35-3.71,2.07-1.2.35-1.62.7-2.18.62-1.68.39c-.64.25-1.14.37-1.51.37h-.91l-1.53.39-1.37.04-.87.08-.77-.08-1.8-.29-1.12-.41-.81-.21-1.02-.79-.39-.35-.81.08-.52-.31-.25-.41-.91-.58c-.17-.21-.25-.62-.25-1.26v-.31l-.77-.33-.29-.7-.35-1.22-.27-.46.73-1.02c-.44-.29-.73-.56-.91-.81-.17-.25-.27-.54-.27-.87s.06-.6.21-.83l.62-1.18.04-1.6.39-.31c.33.06.56.08.66.08.23,0,.35-.08.35-.27s-.17-.31-.5-.44v-.83l-.52-.12.62-2.47.25-.46.25-.35.56-1.41.39-.48.21-.46.62-.48c-.06-.23-.1-.46-.1-.66,0-.48.37-1.14,1.12-2.01l-.48-.27-.54.27c-.12-.46-.21-.7-.21-.79,0-.21.15-.39.41-.58.27-.17.58-.25.95-.25l.62.04.21-.37.64-.08,2.45-.93.68-.25c.35.33.52.62.52.87,0,.15-.06.25-.21.31l-.52.33-1.06,1.26-.35.21-.04.62-.66.83-.91,1.02-.54.7-.62,1.97-.6,1.51-.12,1.18-.68,1.6-.04.75-.41,1.51.23.97-.27.75.87,2.26.04.44c-.21,0-.37.1-.5.25-.12.15-.21.33-.21.54,0,.25.29.41.85.5l.27.48.44.93,1.16,1.33.21.44.52.19.91.6,2.32.58,1.51.31.91.27c.44.39.75.6.97.6.19,0,.41-.25.73-.73l2.86-.15.52.37.54-.21,1.78-.54.66-.41,1.89-.68,1.26-.87.6-.08,1.68-.87,1.16-.27.21-.25-.44-.25.54-.31.81-.52,1.53-1.99.75-.48c.12-.15.21-.41.21-.83v-1.45l.04-1.49c.25-.17.39-.29.48-.41.06-.1.1-.33.1-.64l-.87-.52-.25-4.5.29-.39c-.17-.25-.25-.44-.25-.58,0-.23.08-.52.25-.87l-.25-.17-.04-.5-.21-1.72c0-.17.12-.41.39-.79l-1.12-.93.29-.64h.48c.52-.44.93-.68,1.26-.79l.56-.17.5-.27.66.08c.29-.39.48-.62.62-.7.12-.08.39-.12.79-.12l.25.54v.46l-.02.15Z" style="fill: #231f20;"/>
    <path d="M277.9,354.25l-.33.87-.54-.04c-.21,0-.33.04-.41.12l-.5.87-.66.37-.21.21-.91-.08-1.06.41h-.04l-1.2-.31-.15-.04-2.8.08-.79-.08-.27-.31c-1.02.17-1.58.25-1.7.25l-.91-.04-.62.08-.21-.39h-.29l-.25.04-.87.35-4.87.04-.73.29c-.54-.29-.97-.44-1.26-.44l-.25.04-1.26.29-1.43-.25-4.35.12c-.15,0-.77-.17-1.85-.48l.25-.46.6-1.14.1-1.08.27-.97v-1.51l.15-.58-.1-4.64.1-1.18-.04-.44-.15-.46,1.02-.04c-.19-.31-.33-.54-.48-.68-.12-.12-.37-.29-.68-.5l-.12-.33.12-1.49-.23-2.55.23-.97.1-.39-.52-.12-.21-.41-.1-1.31-.29-.41-.04-.21.04-.5.21-.25,1.37.29-.39-.29c-.25-.15-.37-.29-.37-.39,0-.06.04-.19.1-.33l-.39-.12-.5.12c-.04-.66-.1-1.1-.17-1.31s-.17-.33-.31-.37l-.97-.31.25-.41c.12-.1.39-.23.81-.35l.48-.12c.81-.31,1.43-.46,1.85-.46h.04s.04,0,.08.04l3.63.5,1.68.12.93.25c.6-.19,1.02-.29,1.24-.29.1,0,.17,0,.21.04l3.73.31,3.3-.17,1.29.31.75-.15v-.25c1.14-.08,1.97-.21,2.49-.35.73-.23,1.16-.33,1.31-.33l.5.08c-.08.31-.19.52-.31.64s-.39.27-.81.44c-.04.25-.08.41-.17.5-.08.1-.33.23-.73.39-.85.31-1.58.48-2.14.48h-.27l-1.31-.08-1.12.12-2.28-.21-.52-.04c-.46-.25-.91-.35-1.37-.35-.35.31-1,.48-1.93.48l-.75-.04-.12-.35-.5.12-.73.25-3.38-.25-.54.66.21.17v.17l.1,1.06-.21,1.56.1.58.04.44.5.12,3.38.27c.23,0,.56.12,1.02.39l.77-.12c.46-.12.81-.21,1.02-.21h.04l2.65.12,1.56.04h1.41c.29,0,.54,0,.75-.06.21-.04.44-.1.68-.23l1.89.29.44-.08,1.06-.21,1.93-.04,2.03-.23c.23.06.46.15.68.31l.52-.27c.33-.21.64-.31.91-.31l.54.04.56-.04v.62l-.66.35-1.51,1.06c-.19.12-.35.19-.52.19h-.1l-1.66-.19-2.14.06-1.16-.23-4.15.23-.77-.06c-.19-.27-.39-.39-.62-.39-.12,0-.23,0-.29.04l-1.12.35-3.23-.29-1.58.46-1.12-.27-.91.46-2.72-.17-.21.29.1,1.06-.41,1.08.23.31.35.35-.35.87c.25.37.39.64.44.83l-.1.66.21,1.85v.04c0,.17-.19.46-.54.83.44.44.64.81.64,1.08,0,.08-.04.17-.1.29l-.66,1.14.73,1.02.29,3.84.77.12,3.34.93,1.12-.12c.27,0,.64.1,1.12.31.33-.25.56-.35.73-.35h.1l2.28.35,1.39-.12,1.2.21,2.94-.17.85.12,1.43.04.5.15-.15-.31.56-.08,2.32-.04.5-.17,2.9-.41s.27-.04.56-.1.48-.08.54-.08c.1,0,.31.04.62.12v-.06Z" style="fill: #231f20;"/>
    <path d="M313.96,355.83l-.54.31-.62.35-.91.21-1.76.5c-.5.1-1.02.17-1.58.17h-.87c-.54-.66-.87-1-.97-1.02l-1.26-.62-.6-.39-.33-.29c-.44-.44-.64-.64-.64-.66l-.23-1.14-.93-.29-.81-.97-.97-.31-.56-.64-.39-.1-.35-.31-.81-.54-.48-.44-.68-.31-.87-.83-.52-.41c.08-.17.12-.31.12-.44,0-.31-.15-.5-.41-.54l-1.2-.21-.35-.33-1.43-.87-.68-.87-.87-.35-.73-.54-.64-.21-1.58-.97-.5-.12-.17.52-.25.5-.04.93c.23.1.35.25.35.39s0,.25-.04.31l-.21.48-.1,1.16-.1.91.1.56-.21.5.35.5-.04.39-.15,1.06.04.66.52,3.26v.12c0,.25-.1.46-.33.62l-.5.35-.41.31h-.85c-.29,0-.54.1-.77.29l-1.31.87s-.23.08-.48.08c-.33,0-.5-.08-.5-.25,0-.1.21-.5.6-1.2.19-.25.27-.6.27-1.02l.04-1.37.29-.68-.15-1.49.25-.35.39.04c.21,0,.35-.06.44-.17.08-.1.12-.33.12-.64l-.35-.27c-.37-.23-.56-.5-.56-.79l.15-.79-.25-.25-.04-.66.04-.91.21-1.53-.21-1.95.15-.93-.29-.52c.04-.19.35-.35.91-.5v-.75c-.23-.25-.46-.35-.66-.35l-.04-.89-.1-1.56.15-.79c-.21-.31-.35-.6-.44-.83-.08-.23-.1-.56-.1-.97v-.89l-.17-.12.17-1.49c0-.39-.17-.77-.48-1.14l-.97-.46.1-.54.52-.12.35-.12c1.06-.35,2.09-.54,3.15-.58l1.78-.08.77-.08c.33.25.58.37.75.37h.04l2.49-.37.54.27h.1s.06,0,.08.02l.62-.04,1.74.04h3.48l2.61.35,1.68.08,1.37.58,1.53.35c.56.12,1,.39,1.26.77.29.37.44.83.44,1.37,0,.48-.15,1.06-.44,1.72l-.87-.12c.04.33.21.56.44.68l-.25.46-.54.44-.33.33s-.33.08-.79.08c-.06.08-.1.17-.1.29l.21.33-.33.31-.54.25-1.12,1.04-.81.25-.81.44-.5.04c-.15.35-.39.6-.73.75l-.6.21-.77.23h-.62l-1.2.31-.35.04h-.21l-.73.46c-.15-.08-.29-.12-.39-.12s-.23.02-.33.08c-.04.06-.04.1-.04.17,0,.12.12.27.37.44l-.17.33c-.33.23-.5.39-.5.52,0,0,.04.08.1.23h.52c.21-.17.44-.27.75-.29l.52.46-.25.17c.04.41.21.62.5.62l.5-.04.52.52,1.41,1.29.97.7,1.06,1.02-.15.52,1.06.46c.12.25.23.41.31.48s.33.21.75.48l1.12.97.77.7.39.35v.27c0,.25.08.48.25.64l1.02.27.48.29.87.66,2.53,1.26.52.41h.15s.04,0,.06.02l1.56-.21h.04c.23,0,.56.15.97.44l.04.02ZM303.03,333.87c0-.58-.21-1-.62-1.24l-.79-.5-.87-.52-.81-.04-1.16-.33-.25-.04h-.41l-.29-.56-.66-.08-.35.48-3.48-.25-.33.21-.39-.04-3.44.31h-.52l-.39.37c-.35,0-.58.1-.73.33-.12.23-.21.68-.21,1.39l.04,1.31.04.87v.54c-.48.31-.73.56-.73.79,0,.31.31.54.91.66l.21.44-.1.66v.58l-.21.93c.04.31.39.6,1.06.83l-.04.17,2.22-.04.33.25.44-.08.81-.08,1.62-.5.56.19.54-.23,2.22-.64.81-.46,1.68-.58,1.2-1.62,1.37-1.2.1-.66.48-1.02.1-.56.06-.02Z" style="fill: #231f20;"/>
    <path d="M347.65,355.83l-.54.31-.62.35-.91.21-1.76.5c-.5.1-1.02.17-1.58.17h-.87c-.54-.66-.87-1-.97-1.02l-1.26-.62-.6-.39-.33-.29c-.44-.44-.64-.64-.64-.66l-.23-1.14-.93-.29-.81-.97-.97-.31-.56-.64-.39-.1-.35-.31-.81-.54-.48-.44-.68-.31-.87-.83-.52-.41c.08-.17.12-.31.12-.44,0-.31-.15-.5-.41-.54l-1.2-.21-.35-.33-1.43-.87-.68-.87-.87-.35-.73-.54-.64-.21-1.58-.97-.5-.12-.17.52-.25.5-.04.93c.23.1.35.25.35.39s0,.25-.04.31l-.21.48-.1,1.16-.1.91.1.56-.21.5.35.5-.04.39-.15,1.06.04.66.52,3.26v.12c0,.25-.1.46-.33.62l-.5.35-.41.31h-.85c-.29,0-.54.1-.77.29l-1.31.87s-.23.08-.48.08c-.33,0-.5-.08-.5-.25,0-.1.21-.5.6-1.2.19-.25.27-.6.27-1.02l.04-1.37.29-.68-.15-1.49.25-.35.39.04c.21,0,.35-.06.44-.17.08-.1.12-.33.12-.64l-.35-.27c-.37-.23-.56-.5-.56-.79l.15-.79-.25-.25-.04-.66.04-.91.21-1.53-.21-1.95.15-.93-.29-.52c.04-.19.35-.35.91-.5v-.75c-.23-.25-.46-.35-.66-.35l-.04-.89-.1-1.56.15-.79c-.21-.31-.35-.6-.44-.83-.08-.23-.1-.56-.1-.97v-.89l-.17-.12.17-1.49c0-.39-.17-.77-.48-1.14l-.97-.46.1-.54.52-.12.35-.12c1.06-.35,2.09-.54,3.15-.58l1.78-.08.77-.08c.33.25.58.37.75.37h.04l2.49-.37.54.27h.1s.06,0,.08.02l.62-.04,1.74.04h3.48l2.61.35,1.68.08,1.37.58,1.53.35c.56.12,1,.39,1.26.77.29.37.44.83.44,1.37,0,.48-.15,1.06-.44,1.72l-.87-.12c.04.33.21.56.44.68l-.25.46-.54.44-.33.33s-.33.08-.79.08c-.06.08-.1.17-.1.29l.21.33-.33.31-.54.25-1.12,1.04-.81.25-.81.44-.5.04c-.15.35-.39.6-.73.75l-.6.21-.77.23h-.62l-1.2.31-.35.04h-.21l-.73.46c-.15-.08-.29-.12-.39-.12s-.23.02-.33.08c-.04.06-.04.1-.04.17,0,.12.12.27.37.44l-.17.33c-.33.23-.5.39-.5.52,0,0,.04.08.1.23h.52c.21-.17.44-.27.75-.29l.52.46-.25.17c.04.41.21.62.5.62l.5-.04.52.52,1.41,1.29.97.7,1.06,1.02-.15.52,1.06.46c.12.25.23.41.31.48s.33.21.75.48l1.12.97.77.7.39.35v.27c0,.25.08.48.25.64l1.02.27.48.29.87.66,2.53,1.26.52.41h.15s.04,0,.06.02l1.56-.21h.04c.23,0,.56.15.97.44l.04.02ZM336.72,333.87c0-.58-.21-1-.62-1.24l-.79-.5-.87-.52-.81-.04-1.16-.33-.25-.04h-.41l-.29-.56-.66-.08-.35.48-3.48-.25-.33.21-.39-.04-3.44.31h-.52l-.39.37c-.35,0-.58.1-.73.33-.12.23-.21.68-.21,1.39l.04,1.31.04.87v.54c-.48.31-.73.56-.73.79,0,.31.31.54.91.66l.21.44-.1.66v.58l-.21.93c.04.31.39.6,1.06.83l-.04.17,2.22-.04.33.25.44-.08.81-.08,1.62-.5.56.19.54-.23,2.22-.64.81-.46,1.68-.58,1.2-1.62,1.37-1.2.1-.66.48-1.02.1-.56.06-.02Z" style="fill: #231f20;"/>
    <path d="M382.88,354.25l-.33.87-.54-.04c-.21,0-.33.04-.41.12l-.5.87-.66.37-.21.21-.91-.08-1.06.41h-.04l-1.2-.31-.15-.04-2.8.08-.79-.08-.27-.31c-1.02.17-1.58.25-1.7.25l-.91-.04-.62.08-.21-.39h-.29l-.25.04-.87.35-4.87.04-.73.29c-.54-.29-.97-.44-1.26-.44l-.25.04-1.26.29-1.43-.25-4.35.12c-.15,0-.77-.17-1.85-.48l.25-.46.6-1.14.1-1.08.27-.97v-1.51l.15-.58-.1-4.64.1-1.18-.04-.44-.15-.46,1.02-.04c-.19-.31-.33-.54-.48-.68-.12-.12-.37-.29-.68-.5l-.12-.33.12-1.49-.23-2.55.23-.97.1-.39-.52-.12-.21-.41-.1-1.31-.29-.41-.04-.21.04-.5.21-.25,1.37.29-.39-.29c-.25-.15-.37-.29-.37-.39,0-.06.04-.19.1-.33l-.39-.12-.5.12c-.04-.66-.1-1.1-.17-1.31s-.17-.33-.31-.37l-.97-.31.25-.41c.12-.1.39-.23.81-.35l.48-.12c.81-.31,1.43-.46,1.85-.46h.04s.04,0,.08.04l3.63.5,1.68.12.93.25c.6-.19,1.02-.29,1.24-.29.1,0,.17,0,.21.04l3.73.31,3.3-.17,1.29.31.75-.15v-.25c1.14-.08,1.97-.21,2.49-.35.73-.23,1.16-.33,1.31-.33l.5.08c-.08.31-.19.52-.31.64s-.39.27-.81.44c-.04.25-.08.41-.17.5-.08.1-.33.23-.73.39-.85.31-1.58.48-2.14.48h-.27l-1.31-.08-1.12.12-2.28-.21-.52-.04c-.46-.25-.91-.35-1.37-.35-.35.31-1,.48-1.93.48l-.75-.04-.12-.35-.5.12-.73.25-3.38-.25-.54.66.21.17v.17l.1,1.06-.21,1.56.1.58.04.44.5.12,3.38.27c.23,0,.56.12,1.02.39l.77-.12c.46-.12.81-.21,1.02-.21h.04l2.65.12,1.56.04h1.41c.29,0,.54,0,.75-.06.21-.04.44-.1.68-.23l1.89.29.44-.08,1.06-.21,1.93-.04,2.03-.23c.23.06.46.15.68.31l.52-.27c.33-.21.64-.31.91-.31l.54.04.56-.04v.62l-.66.35-1.51,1.06c-.19.12-.35.19-.52.19h-.1l-1.66-.19-2.14.06-1.16-.23-4.15.23-.77-.06c-.19-.27-.39-.39-.62-.39-.12,0-.23,0-.29.04l-1.12.35-3.23-.29-1.58.46-1.12-.27-.91.46-2.72-.17-.21.29.1,1.06-.41,1.08.23.31.35.35-.35.87c.25.37.39.64.44.83l-.1.66.21,1.85v.04c0,.17-.19.46-.54.83.44.44.64.81.64,1.08,0,.08-.04.17-.1.29l-.66,1.14.73,1.02.29,3.84.77.12,3.34.93,1.12-.12c.27,0,.64.1,1.12.31.33-.25.56-.35.73-.35h.1l2.28.35,1.39-.12,1.2.21,2.94-.17.85.12,1.43.04.5.15-.15-.31.56-.08,2.32-.04.5-.17,2.9-.41s.27-.04.56-.1.48-.08.54-.08c.1,0,.31.04.62.12v-.06Z" style="fill: #231f20;"/>
    <path d="M418.93,355.83l-.54.31-.62.35-.91.21-1.76.5c-.5.1-1.02.17-1.58.17h-.87c-.54-.66-.87-1-.97-1.02l-1.26-.62-.6-.39-.33-.29c-.44-.44-.64-.64-.64-.66l-.23-1.14-.93-.29-.81-.97-.97-.31-.56-.64-.39-.1-.35-.31-.81-.54-.48-.44-.68-.31-.87-.83-.52-.41c.08-.17.12-.31.12-.44,0-.31-.15-.5-.41-.54l-1.2-.21-.35-.33-1.43-.87-.68-.87-.87-.35-.73-.54-.64-.21-1.58-.97-.5-.12-.17.52-.25.5-.04.93c.23.1.35.25.35.39s0,.25-.04.31l-.21.48-.1,1.16-.1.91.1.56-.21.5.35.5-.04.39-.15,1.06.04.66.52,3.26v.12c0,.25-.1.46-.33.62l-.5.35-.41.31h-.85c-.29,0-.54.1-.77.29l-1.31.87s-.23.08-.48.08c-.33,0-.5-.08-.5-.25,0-.1.21-.5.6-1.2.19-.25.27-.6.27-1.02l.04-1.37.29-.68-.15-1.49.25-.35.39.04c.21,0,.35-.06.44-.17.08-.1.12-.33.12-.64l-.35-.27c-.37-.23-.56-.5-.56-.79l.15-.79-.25-.25-.04-.66.04-.91.21-1.53-.21-1.95.15-.93-.29-.52c.04-.19.35-.35.91-.5v-.75c-.23-.25-.46-.35-.66-.35l-.04-.89-.1-1.56.15-.79c-.21-.31-.35-.6-.44-.83-.08-.23-.1-.56-.1-.97v-.89l-.17-.12.17-1.49c0-.39-.17-.77-.48-1.14l-.97-.46.1-.54.52-.12.35-.12c1.06-.35,2.09-.54,3.15-.58l1.78-.08.77-.08c.33.25.58.37.75.37h.04l2.49-.37.54.27h.1s.06,0,.08.02l.62-.04,1.74.04h3.48l2.61.35,1.68.08,1.37.58,1.53.35c.56.12,1,.39,1.26.77.29.37.44.83.44,1.37,0,.48-.15,1.06-.44,1.72l-.87-.12c.04.33.21.56.44.68l-.25.46-.54.44-.33.33s-.33.08-.79.08c-.06.08-.1.17-.1.29l.21.33-.33.31-.54.25-1.12,1.04-.81.25-.81.44-.5.04c-.15.35-.39.6-.73.75l-.6.21-.77.23h-.62l-1.2.31-.35.04h-.21l-.73.46c-.15-.08-.29-.12-.39-.12s-.23.02-.33.08c-.04.06-.04.1-.04.17,0,.12.12.27.37.44l-.17.33c-.33.23-.5.39-.5.52,0,0,.04.08.1.23h.52c.21-.17.44-.27.75-.29l.52.46-.25.17c.04.41.21.62.5.62l.5-.04.52.52,1.41,1.29.97.7,1.06,1.02-.15.52,1.06.46c.12.25.23.41.31.48s.33.21.75.48l1.12.97.77.7.39.35v.27c0,.25.08.48.25.64l1.02.27.48.29.87.66,2.53,1.26.52.41h.15s.04,0,.06.02l1.56-.21h.04c.23,0,.56.15.97.44l.04.02ZM408.01,333.87c0-.58-.21-1-.62-1.24l-.79-.5-.87-.52-.81-.04-1.16-.33-.25-.04h-.41l-.29-.56-.66-.08-.35.48-3.48-.25-.33.21-.39-.04-3.44.31h-.52l-.39.37c-.35,0-.58.1-.73.33-.12.23-.21.68-.21,1.39l.04,1.31.04.87v.54c-.48.31-.73.56-.73.79,0,.31.31.54.91.66l.21.44-.1.66v.58l-.21.93c.04.31.39.6,1.06.83l-.04.17,2.22-.04.33.25.44-.08.81-.08,1.62-.5.56.19.54-.23,2.22-.64.81-.46,1.68-.58,1.2-1.62,1.37-1.2.1-.66.48-1.02.1-.56.06-.02Z" style="fill: #231f20;"/>
    <path d="M460.55,343.26s0,.17-.04.23l-.44,1.18.04,1.02-.37.54s-.19-.04-.35-.04c-.1,0-.19.06-.27.21-.08.12-.12.29-.12.46,0,.06,0,.1.04.12.33.44.5.73.5.87,0,.1-.04.21-.1.29-.35.27-.58.56-.73.91l-.54.21.15.15-.15.12.39.25-.04.12-.44.33-.56.77-.39.33c-.23-.19-.41-.29-.56-.29-.29,0-.44.12-.44.39,0,.1.12.31.39.58-.52.7-1.35,1.33-2.53,1.93-1.22.62-2.49,1.2-3.79,1.7-1.31.5-2.3.81-3.03.91l-.5.08c-1.24.19-2.01.29-2.32.29h-.1l-.97-.04-.62.08-.91-.44-.68.25c-.31.17-.54.27-.66.27h-.21c-.12-.25-.27-.44-.39-.56-.12-.1-.33-.21-.62-.31-1.02.44-1.82.64-2.38.64-.21,0-.39-.06-.56-.17-.37,0-.56,0-.6-.04l-1.74-.39-1.45.04-.56-.37-.81.08-.68-.08-1.02-.25-3.15-.58-.87-.56-1.12-.33-1.16-.97c-.27-.17-.64-.25-1.16-.25l-.66-.62c.12-.25.21-.46.21-.58,0-.41-.6-.7-1.82-.87v-.17l-.29-.08-.29-.44-.25-.23v-.44l-.52-1.2-.1-.39-.39-1.76.15-1.72.21-.5.15-1.1,1.2-2.59.15-.46c.35-.7.89-1.2,1.64-1.53v-.27l1.26-1.14c.21.06.31.08.35.08.25,0,.41-.08.52-.25l.35-.87.48-.5c.19-.29.44-.52.75-.66l.77-.29.66-.66,1.56-.87c1.04-.54,1.64-.83,1.78-.83l.39.12.66-.64.44-.08,4.67-1.49c.27-.1.58-.17.97-.17.35,0,.77.08,1.26.25l.39-.12.15-.37.73.08.39.06h.12l1.2-.27,1.93.08.93-.17.81.08.77-.04.87.25,1.45.23,1.06.48,3.05.91.29.23.56.29v.21l-.1.04c-.12.1-.21.21-.21.29s.19.23.54.39l.1-.17c.37,0,.66.15.87.44,0,.31.04.52.1.6.06.1.23.25.48.44.25-.12.48-.19.68-.19.44,0,.79.15,1.06.41l.41.44.89.66.12.46.6.6.15.54c-.27.29-.39.52-.39.7,0,.08,0,.15.04.21l1.51,1.24.1.44.41.93s-.04.21-.1.5l-.37.17v.21l.41.04.1.46.25,1.51.04-.02ZM456.59,339.86c0-.6-.48-.95-1.41-1.08l-.15-1.1-1.2-1.51-.21-.62-.33-.04-.44-.44-1.12-1.06-1.02-.54-1.02-.66-.48-.12-.29-.44h-.5c-.46,0-.81-.08-1.06-.23l-2.18-.97-2.18-.25-1.58-.25-1.51.04h-1.16l-1.24.29-1.12.12-1.12.54-.6-.12h-.04l-.62.17-2.74,1.22-.64.08c-.46.54-.87.85-1.2.93l-.66.23-2.18,1.72-.39.25c-.6.35-1.2,1.02-1.82,1.97l-.25.37-.52.08-.25.39-.29,1.04-.33.29-.15.39-1.02-.12c-.08.23-.17.37-.27.46-.08.08-.25.17-.48.25l-.08.21c.6.31.91.6.91.91l-.04,1.41.37,2.05-.04.5.79,1.06c-.39.21-.6.39-.6.58,0,.12.08.23.23.35.17.1.35.17.58.17.08,0,.15-.02.21-.02h.29l.91.91c-.21.25-.29.39-.29.46l.21.31h.21l1.02.79,1.31.58,1.82,1.22,1.41.23.77.64,2.57.79,2.14.75.73-.04,4.56.54.73.04.56-.04.97-.21,2.47.12,1.06-.19,1.89-.6.68-.17.37.25c.52-.12.79-.25.85-.37l.23-.64,2.47-1.72,1.02-1.45.39-.58h.33l.29-.52-.15-.23.15-.35.1-1.64.39-.79.12-.58.35-.21.25-1.22c-.33-.48-.5-.85-.5-1.12v-.04l.1-1.93-.04-.62c.5-.25.75-.52.75-.81l-.06-.06Z" style="fill: #231f20;"/>
  </g>
  <g>
    <path d="M167.47,394.17c-1.08-.29-1.97-.66-2.63-1.14l1.33-2.96c.64.41,1.37.77,2.22,1.02.85.25,1.66.39,2.49.39,1.56,0,2.32-.39,2.32-1.16,0-.41-.23-.7-.66-.91-.44-.19-1.14-.39-2.11-.62-1.08-.23-1.97-.48-2.67-.75-.73-.27-1.33-.68-1.85-1.26s-.77-1.37-.77-2.36c0-.87.23-1.66.7-2.34.48-.7,1.18-1.24,2.11-1.66.93-.41,2.09-.6,3.46-.6.93,0,1.87.1,2.76.31.91.21,1.7.52,2.41.93l-1.24,2.99c-1.35-.73-2.67-1.1-3.94-1.1-.81,0-1.39.12-1.74.35s-.54.54-.54.93.21.66.64.85,1.14.39,2.09.58c1.08.23,1.99.48,2.7.75.7.27,1.33.68,1.85,1.26.52.58.79,1.37.79,2.34,0,.85-.23,1.62-.7,2.32-.48.68-1.18,1.24-2.14,1.66-.95.41-2.09.62-3.46.62-1.16,0-2.26-.15-3.36-.44h-.04Z" style="fill: #231f20;"/>
    <path d="M188.5,391.53h-6.01l-1.12,2.76h-4.11l6.28-14.22h3.96l6.3,14.22h-4.19l-1.12-2.76ZM187.32,388.57l-1.82-4.56-1.82,4.56h3.65Z" style="fill: #231f20;"/>
    <path d="M207.8,388.22c.46.6.68,1.33.68,2.18,0,1.24-.5,2.22-1.51,2.88-1,.68-2.45,1.02-4.35,1.02h-7.69v-14.22h7.28c1.82,0,3.19.33,4.15,1.02.95.66,1.43,1.58,1.43,2.72,0,.68-.17,1.29-.5,1.82-.33.54-.81.95-1.41,1.26.81.29,1.45.73,1.91,1.33h.02ZM198.93,382.99v2.74h2.76c1.35,0,2.03-.46,2.03-1.39s-.68-1.37-2.03-1.37h-2.76v.02ZM204.42,389.96c0-.95-.7-1.45-2.11-1.45h-3.38v2.88h3.38c1.41,0,2.11-.48,2.11-1.45v.02Z" style="fill: #231f20;"/>
    <path d="M213.69,393.63c-1.2-.64-2.14-1.51-2.82-2.63-.68-1.12-1.04-2.38-1.04-3.79s.33-2.67,1.04-3.79c.68-1.12,1.62-2.01,2.82-2.63,1.2-.64,2.55-.95,4.06-.95s2.86.31,4.06.95c1.2.64,2.14,1.51,2.82,2.63.68,1.12,1.04,2.38,1.04,3.79s-.35,2.67-1.04,3.79c-.68,1.12-1.62,2.01-2.82,2.63-1.2.64-2.55.95-4.06.95s-2.86-.31-4.06-.95ZM219.7,390.75c.58-.33,1.04-.81,1.39-1.43.33-.62.5-1.33.5-2.11s-.17-1.51-.5-2.11c-.33-.62-.81-1.1-1.39-1.43-.58-.33-1.22-.52-1.95-.52s-1.37.17-1.95.52c-.58.33-1.04.81-1.39,1.43-.33.62-.52,1.33-.52,2.11s.17,1.51.52,2.11c.33.62.81,1.1,1.39,1.43s1.22.5,1.95.5,1.37-.17,1.95-.5Z" style="fill: #231f20;"/>
    <path d="M233.99,390.52h-2.2v3.77h-4.02v-14.22h6.51c1.29,0,2.41.21,3.36.64.95.44,1.68,1.04,2.2,1.82.52.79.77,1.72.77,2.8s-.25,1.93-.73,2.7c-.48.77-1.16,1.37-2.07,1.8l3.07,4.48h-4.31l-2.59-3.77.02-.02ZM235.9,383.8c-.41-.37-1.04-.54-1.87-.54h-2.24v4.17h2.24c.83,0,1.45-.19,1.87-.54.41-.35.62-.87.62-1.53s-.21-1.18-.62-1.56Z" style="fill: #231f20;"/>
    <path d="M258.58,380.71c.95.44,1.68,1.04,2.2,1.82.52.79.77,1.72.77,2.8s-.25,1.99-.77,2.78c-.52.79-1.24,1.39-2.2,1.82-.95.44-2.07.64-3.36.64h-2.49v3.71h-4.02v-14.22h6.51c1.29,0,2.41.21,3.36.64ZM256.86,386.87c.41-.35.62-.87.62-1.53s-.21-1.18-.62-1.56-1.04-.54-1.87-.54h-2.24v4.17h2.24c.83,0,1.45-.19,1.87-.54Z" style="fill: #231f20;"/>
    <path d="M272.32,391.53h-6.01l-1.12,2.76h-4.11l6.28-14.22h3.96l6.3,14.22h-4.19l-1.12-2.76h0ZM271.14,388.57l-1.82-4.56-1.82,4.56h3.65Z" style="fill: #231f20;"/>
    <path d="M281.63,393.65c-1.18-.62-2.11-1.51-2.8-2.63-.68-1.12-1.02-2.41-1.02-3.82s.33-2.7,1.02-3.82,1.62-2.01,2.8-2.63,2.53-.95,4.02-.95c1.31,0,2.47.23,3.52.68,1.04.46,1.91,1.12,2.59,1.99l-2.57,2.32c-.91-1.12-2.03-1.66-3.36-1.66-.77,0-1.45.17-2.07.52s-1.08.81-1.41,1.43c-.33.62-.5,1.33-.5,2.11s.17,1.51.5,2.11c.33.62.81,1.1,1.41,1.43s1.29.5,2.07.5c1.31,0,2.43-.56,3.36-1.66l2.57,2.32c-.68.87-1.56,1.53-2.59,1.99s-2.22.68-3.52.68c-1.49,0-2.82-.31-4.02-.95v.02Z" style="fill: #231f20;"/>
    <path d="M293.56,380.07h4.02v14.22h-4.02v-14.22ZM296.31,375.82h3.86l-3.82,3.09h-2.76l2.72-3.09Z" style="fill: #231f20;"/>
    <path d="M304.48,383.18v3.13h6.28v3.11h-6.28v4.87h-4.02v-14.22h11.15v3.11h-7.13Z" style="fill: #231f20;"/>
    <path d="M313.5,380.07h4.02v14.22h-4.02v-14.22Z" style="fill: #231f20;"/>
    <path d="M323.47,393.65c-1.18-.62-2.11-1.51-2.8-2.63-.68-1.12-1.02-2.41-1.02-3.82s.33-2.7,1.02-3.82,1.62-2.01,2.8-2.63,2.53-.95,4.02-.95c1.31,0,2.47.23,3.52.68,1.04.46,1.91,1.12,2.59,1.99l-2.57,2.32c-.91-1.12-2.03-1.66-3.36-1.66-.77,0-1.45.17-2.07.52s-1.08.81-1.41,1.43c-.33.62-.5,1.33-.5,2.11s.17,1.51.5,2.11c.33.62.81,1.1,1.41,1.43s1.29.5,2.07.5c1.31,0,2.43-.56,3.36-1.66l2.57,2.32c-.68.87-1.56,1.53-2.59,1.99s-2.22.68-3.52.68c-1.49,0-2.82-.31-4.02-.95v.02Z" style="fill: #231f20;"/>
    <path d="M338.2,393.63c-1.2-.64-2.14-1.51-2.82-2.63-.68-1.12-1.04-2.38-1.04-3.79s.33-2.67,1.04-3.79c.68-1.12,1.62-2.01,2.82-2.63,1.2-.64,2.55-.95,4.06-.95s2.86.31,4.06.95c1.2.64,2.14,1.51,2.82,2.63.68,1.12,1.04,2.38,1.04,3.79s-.35,2.67-1.04,3.79c-.68,1.12-1.62,2.01-2.82,2.63-1.2.64-2.55.95-4.06.95s-2.86-.31-4.06-.95ZM344.21,390.75c.58-.33,1.04-.81,1.39-1.43.33-.62.5-1.33.5-2.11s-.17-1.51-.5-2.11c-.33-.62-.81-1.1-1.39-1.43-.58-.33-1.22-.52-1.95-.52s-1.37.17-1.95.52c-.58.33-1.04.81-1.39,1.43-.33.62-.52,1.33-.52,2.11s.17,1.51.52,2.11c.33.62.81,1.1,1.39,1.43s1.22.5,1.95.5,1.37-.17,1.95-.5Z" style="fill: #231f20;"/>
  </g>
  <g>
    <path d="M354.76,386.14h118.99s-1.24,5.91-20.48,5.91c-16.34,0-27.1-3.84-27.1-3.84h-71.41v-2.09.02Z" style="fill: #231f20;"/>
    <path d="M88.83,386.14s-11.45-3.84-27.1-3.84h-20.48v2.32h19.28v1.51h-19.28v2.07h19.28v1.51h-19.28v2.32h20.48c15.63,0,27.1-3.84,27.1-3.84h71.41v-2.09h-71.41v.02Z" style="fill: #231f20;"/>
  </g>
  <g>
    <rect x="162.89" y="405.82" width="63.07" height="5.2" style="fill: #e03d26;"/>
    <rect x="225.96" y="405.82" width="63.07" height="5.2" style="fill: #3ba649;"/>
    <rect x="289.04" y="405.82" width="63.07" height="5.2" style="fill: #eda23b;"/>
  </g>
  <g>
    <path d="M383.25,41.61c-7.65,5.18-15.86,9.62-15.86,30.06,0,0,.25,10.22.31,10.35.46,10.55.39,21.25-9.12,28.65-1.76,1.37-3.71,2.32-5.72,2.96-.02,0-.06-.02-.08,0-6.68-.1-10.74-3.19-11.45-8.67-.54-4.25,2.45-8.15,6.7-8.69,3.23-.39,6.2,1.85,6.66,5.06.1.73.04,1.47-.21,2.18-.62,1.66-2.01,2.72-3.65,2.92-.79.1-1.56-.1-2.22-.54.23-.12.46-.25.64-.44,1.02-1.04.97-2.7-.06-3.71s-2.7-.97-3.71.06c-1.64,1.66-.06,5.16,1.22,6.14,1.29,1,2.86,1.41,4.46,1.2,1.91-.25,3.61-1.22,4.79-2.74,1.18-1.51,1.7-3.42,1.45-5.33-.6-4.73-4.96-8.11-9.72-7.51-5.74.75-9.81,6.01-9.06,11.76.41,3.26,1.78,5.87,3.94,7.73.54.46,1.12.85,1.74,1.2-5.52-1.04-14.04-7.78-17.4-13.46-4.96-7.98-2.32,1.45-2.32,1.45,1.41,2.28,6.07,7.22,8,8.87,3.13,2.67,7.48,5.16,11.4,5.87,5.74,1.04,11.53-.44,16.26-4.15,11.2-8.71,10.59-21.52,10.08-32.82-.12-2.59-.23-5.16-.23-7.65-.6-20.03,8.36-24.28,14.66-28.51.58-.39.79-1.18.44-1.8h0c-.39-.7-1.31-.91-1.97-.46l.04-.02Z" style="fill: #231f20;"/>
    <path d="M366.25,86.97c-2.65,0-6.9-.62-11.45-3.71-8.94-6.14-14.76-18.91-17.33-37.96l-.58-4.33,3.48,2.63c.31.23,7.53,5.72,14.89,13.5,10.06,10.66,15.16,20.03,15.16,27.87v1.45l-1.41.33c-.1.02-1.14.25-2.76.25v-.02ZM341.82,49.43c2.01,11.47,6.22,24.65,14.97,30.75,4.13,2.86,7.9,3.21,9.89,3.15-.7-6.53-5.52-14.7-14.06-23.74-4-4.23-8.02-7.82-10.8-10.16Z" style="fill: #231f20;"/>
    <path d="M368.96,66.14l-1.31-.23c-.19-.04-4.62-.83-7.73-5.7-3.73-5.83-4.02-14.72-.85-26.41l1.04-3.82,2.24,3.28c.56.81,13.46,19.99,7.24,31.72l-.62,1.16ZM361.58,39.02c-2.16,10.51-.5,16.23,1.41,19.24,1.31,2.03,2.88,3.09,3.98,3.61,1.68-4.87-.12-11.28-2.05-15.99-1.08-2.63-2.3-5.02-3.34-6.84v-.02Z" style="fill: #231f20;"/>
    <path d="M389.47,45.67c-3.65,0-6.63-2.99-6.63-6.63s2.99-6.63,6.63-6.63,6.63,2.99,6.63,6.63-2.99,6.63-6.63,6.63ZM389.47,34.83c-2.32,0-4.21,1.89-4.21,4.21s1.89,4.21,4.21,4.21,4.21-1.89,4.21-4.21-1.89-4.21-4.21-4.21Z" style="fill: #231f20;"/>
    <path d="M385.39,59.44c-3.65,0-6.63-2.99-6.63-6.63s2.99-6.63,6.63-6.63,6.63,2.99,6.63,6.63-2.99,6.63-6.63,6.63ZM385.39,48.6c-2.32,0-4.21,1.89-4.21,4.21s1.89,4.21,4.21,4.21,4.21-1.89,4.21-4.21-1.89-4.21-4.21-4.21Z" style="fill: #231f20;"/>
    <path d="M399.55,56.5c-3.65,0-6.63-2.99-6.63-6.63s2.99-6.63,6.63-6.63,6.63,2.99,6.63,6.63-2.99,6.63-6.63,6.63ZM399.55,45.67c-2.32,0-4.21,1.89-4.21,4.21s1.89,4.21,4.21,4.21,4.21-1.89,4.21-4.21-1.89-4.21-4.21-4.21Z" style="fill: #231f20;"/>
  </g>
  <g>
    <path d="M129.78,42.06h0c-.35.62-.17,1.41.44,1.8,6.3,4.23,15.26,8.5,14.66,28.51,0,2.49-.1,5.06-.23,7.65-.52,11.3-1.12,24.09,10.08,32.82,4.75,3.69,10.51,5.16,16.26,4.15,3.92-.7,8.27-3.17,11.4-5.87,1.93-1.66,6.59-6.59,8-8.87,0,0,2.63-9.41-2.32-1.45-3.36,5.68-11.88,12.42-17.4,13.46.62-.37,1.22-.77,1.74-1.2,2.18-1.87,3.55-4.48,3.94-7.73.75-5.74-3.32-11.01-9.06-11.76-4.75-.6-9.12,2.76-9.72,7.51-.25,1.91.27,3.79,1.45,5.33,1.18,1.51,2.88,2.49,4.79,2.74,1.6.21,3.19-.21,4.46-1.2,1.29-.97,2.88-4.46,1.22-6.14-1.02-1.04-2.67-1.08-3.71-.06-1.04,1.02-1.06,2.67-.06,3.71.19.19.41.31.64.44-.66.44-1.43.64-2.22.54-1.64-.21-3.03-1.26-3.65-2.92-.25-.68-.31-1.45-.21-2.18.46-3.21,3.42-5.45,6.66-5.06,4.25.56,7.26,4.46,6.7,8.69-.7,5.47-4.77,8.54-11.45,8.67h-.08c-2.01-.64-3.96-1.6-5.72-2.96-9.52-7.4-9.56-18.1-9.12-28.65.06-.12.31-10.35.31-10.35,0-20.44-8.21-24.9-15.86-30.06-.66-.46-1.58-.23-1.97.46l.04.02Z" style="fill: #231f20;"/>
    <path d="M145.97,86.7l-1.41-.33v-1.45c0-7.84,5.1-17.21,15.16-27.87,7.34-7.78,14.58-13.27,14.89-13.5l3.48-2.63-.58,4.33c-2.57,19.05-8.4,31.83-17.33,37.96-4.52,3.11-8.79,3.71-11.45,3.71-1.64,0-2.65-.23-2.76-.25v.02ZM162.37,59.59c-8.54,9.04-13.37,17.21-14.06,23.74,2.01.06,5.78-.29,9.89-3.15,8.75-6.1,12.94-19.28,14.97-30.75-2.78,2.34-6.8,5.93-10.8,10.16Z" style="fill: #231f20;"/>
    <path d="M145.41,64.98c-6.22-11.74,6.68-30.91,7.24-31.72l2.24-3.28,1.04,3.82c3.17,11.69,2.88,20.59-.85,26.41-3.13,4.87-7.55,5.68-7.73,5.7l-1.31.23-.62-1.16ZM150.08,45.88c-1.93,4.71-3.73,11.11-2.05,15.99,1.08-.52,2.67-1.56,3.98-3.61,1.93-3.01,3.59-8.71,1.41-19.24-1.04,1.85-2.26,4.23-3.34,6.84v.02Z" style="fill: #231f20;"/>
    <path d="M118.89,39.04c0-3.65,2.99-6.63,6.63-6.63s6.63,2.99,6.63,6.63-2.99,6.63-6.63,6.63-6.63-2.99-6.63-6.63ZM121.32,39.04c0,2.32,1.89,4.21,4.21,4.21s4.21-1.89,4.21-4.21-1.89-4.21-4.21-4.21-4.21,1.89-4.21,4.21Z" style="fill: #231f20;"/>
    <path d="M122.98,52.81c0-3.65,2.99-6.63,6.63-6.63s6.63,2.99,6.63,6.63-2.99,6.63-6.63,6.63-6.63-2.99-6.63-6.63ZM125.41,52.81c0,2.32,1.89,4.21,4.21,4.21s4.21-1.89,4.21-4.21-1.89-4.21-4.21-4.21-4.21,1.89-4.21,4.21Z" style="fill: #231f20;"/>
    <path d="M108.82,49.86c0-3.65,2.99-6.63,6.63-6.63s6.63,2.99,6.63,6.63-2.99,6.63-6.63,6.63-6.63-2.99-6.63-6.63ZM111.24,49.86c0,2.32,1.89,4.21,4.21,4.21s4.21-1.89,4.21-4.21-1.89-4.21-4.21-4.21-4.21,1.89-4.21,4.21Z" style="fill: #231f20;"/>
  </g>
</svg>